<?xml version="1.0" encoding="utf-8"?>
<!-- Generator: Adobe Illustrator 21.0.0, SVG Export Plug-In . SVG Version: 6.00 Build 0)  -->
<svg version="1.1" id="Capa_1" xmlns="http://www.w3.org/2000/svg" xmlns:xlink="http://www.w3.org/1999/xlink" x="0px" y="0px"
	 viewBox="0 0 100 100" style="enable-background:new 0 0 100 100;" xml:space="preserve">
<style type="text/css">
	.st0{fill:#FFFFFF;}
</style>
<g>
	<path class="st0" d="M84.2,82.5c-1.6,1.9-3.5,3.6-5.5,5.1c-2.7,2.1-5.5,3.8-8.6,5.2c-0.6-0.2-1.2-0.3-1.6-0.8
		c-0.3,0.5,0.3,0.8-0.1,1.2c-0.3,0.1-0.8-0.2-1.1,0.1c0,0.3,0.3,0.2,0.4,0.5c0,0.2-0.3,0.2-0.5,0.3c-2.2,0.8-4.4,1.6-6.7,2.1
		c-0.5,0.1-0.9,0.2-1.3-0.3c-0.1,0.2-0.2,0.3-0.3,0.5c-1.9,0.4-3.8,0.7-5.7,0.8c-3.4,0.2-6.9,0.2-10.3-0.5c-1.4-0.3-2.9-0.4-4.3-0.8
		c-1.4-0.4-2.8-0.8-4.2-1.3c-0.4-0.2-0.7-0.3-0.9-0.7c-0.4,0-0.8,0.2-1.2,0c-3.3-1.4-6.5-3.1-9.4-5.2c-0.1,0-0.1-0.1-0.1-0.2
		c0.1-0.1,0.2-0.1,0.1-0.3c-0.3-0.2-0.7,0-1-0.3c0.1-0.9-1.1-0.7-1.4-1.4c-1.1-0.2-1.7-1.1-2.4-1.8c-0.4-0.4-0.9-0.8-1.3-1.2
		c-0.9-0.8-0.9-1.1-0.4-2.2c0.1-0.3,0.1-0.4-0.1-0.6c-0.3,0-0.3,0.3-0.4,0.5c-0.1,0.2-0.2,0.4-0.6,0.6c-1.6-1.8-3.1-3.6-4.4-5.7
		c0.3-0.5,1.2-0.5,1-1.3c0.4-0.3,0.8,0,1.1-0.4c0-0.3,0.2-0.7-0.3-0.8c-0.3,0.1,0,0.4-0.3,0.5c-0.3,0-0.3-0.3-0.5-0.4
		c-0.8,0.2-0.8,0.2-1.3,1.1c0.2,0.4,0.1,0.8,0.1,1.2c-0.3-0.6-0.3-0.6-0.4-1.2c-0.8-0.4-1.4-1.3-1.2-2.1c-0.3-0.2-0.6-0.2-0.8-0.6
		c-1-1.9-1.9-3.9-2.6-6c0.3-0.5,0.6-1,0.5-1.7c-0.5,0.1-1.1,0.3-1.1-0.5c0-0.3,0.5-0.3,0.4-0.6c-0.1-0.4-0.6-0.4-0.9-0.7
		C4.7,61.9,4.3,61,4,60.2c-0.2-0.9-0.3-1.9-0.5-2.8c-0.1-0.3-0.1-0.6,0.2-0.8c-0.6-1-0.9-2.9-0.8-6.3c0.2-0.1,0.4-0.3,0.5-0.4
		c0,0,0-0.1,0.1-0.2c0-0.4-0.4-0.2-0.6-0.5c0.4-0.4,0.1-0.9,0.1-1.5c0-1.3,0.2-2.6,0.4-3.9c0-0.2,0.1-0.5,0.1-0.7
		c0.1-0.9,0.1-0.9,0.7-1.7c-0.1-1.5,0-2.3,0.5-3.7c0.3-0.5,1.4,0,1.2-1.1c-0.3-0.1-0.5,0.3-0.9,0c0-0.3,0.2-0.6,0.3-0.9
		c0.3-0.1,0.5-0.1,0.7-0.2c0-0.4-0.4-0.5-0.3-0.9c0-0.3,0.2-0.3,0.4-0.3c-0.1-1,0.9-3.1,2-5.2c0.6,0.1,0.8-0.8,1.6-0.5
		c0.1-0.7,0.5-1.2,0-1.7c0.3-0.4,0.2-0.9,0.4-1.3c1.1-1.8,2.4-3.5,3.7-5.1c0.2-0.3,0.4-0.6,0.9-0.5c0.4-1.4,4-4.9,5.2-5.1
		c0.3-0.2,0.1-0.6,0.5-0.9c3.6-2.8,7.5-5.3,11.8-6.9c1.2-0.5,2.4-0.9,3.6-1.4c0.6-0.2,1.3-0.2,2-0.3c0.5-0.1,0.6,0.2,0.9,0.8
		c0.1,0.1,0.5-0.1,0.8-0.1c0.3-0.4,0.1-0.8,0.3-1.3c0.7-0.4,1.5-0.6,2.4-0.2c0.5-0.7,1.3-0.6,2.1-0.5c0.2,0.4-0.2,0.6-0.2,1
		c-0.3-0.3-0.3-0.7-0.7-0.6c-0.3,0.2-0.1,0.5,0,0.7c-0.2,0.1-0.4,0.2-0.6,0.3c0,0.1,0,0.2,0,0.2c0.5,0.5,0.8,1,0.7,1.7
		c0,0.3,0.1,0.6,0.6,0.8c0-0.8,1-1.3,0.8-2.1c-0.2-0.7,0.5-1.4-0.2-2c0.8-0.2,0.8-0.2,1.5,0.1c0.2-0.3,0.5-0.4,0.9-0.4
		c0.2,0,0.6,0.1,0.7-0.3c0.6,0,1.1,0,1.7,0c0,0.5,0.1,0.9,0.1,1.4c0.3,0,0.4-0.2,0.5-0.3c0.5,0.1,0.9,0.3,1.4,0
		c-0.4-0.4-0.8-0.6-0.9-1.1c0.6,0,1.3,0,1.9,0c0.3,0.3,0.8,0.2,1.1,0.2c1.1,0,2.1,0.2,3.2,0.4c0.1,0.2,0.2,0.4,0.3,0.5
		c0.9-0.8,1.7,0,2.4-0.1c1,0.5,0.3,2,1.6,2.1c0.6-0.8,0.6-0.8-0.1-1.3c0.3-0.4,0.7-0.3,1.2-0.2c0.8,0.3,1.6,0.5,2.3,0.8
		C65.2,6,66,6.2,66.7,6.4c0.9,0.4,1.8,0.8,2.7,1.1C69.8,7.7,70,8,70.1,8.3c0.6-0.1,1.3-0.2,1.4,0.7c0.4,0.1,0.9,0.1,1.2,0.4
		c0,0.9,0.1,0.9,1.3,0.7c0.4,0.4,0.2,0.9,0.2,1.3c-0.3,0.2-0.5-0.1-0.8,0c-0.1,0.1-0.3,0.2-0.3,0.5c-0.3,0.3-0.7,0-1,0.3
		c0.1,0.5,0.7,0.5,1.1,0.8c0.3-0.2,0.2-0.8,0.7-0.7c0.4-0.1,0.3,0.5,0.8,0.5c0.5-0.5,0.4-1.3,0.5-2.2c0.7,0.5,1.4,1,2.1,1.4
		c0.7,0.4,0.9,1.2,1.8,1.5c0.7,0.2,1.3,0.8,1.8,1.7c0.1,0.1,0.5,0,0.8,0.3c-0.2,0.3-0.4,0.7-0.6,1c-0.2,0-0.2,0-0.6,0.3
		c0.6,0.1,1,0.5,1.3,0.9c0.4-0.6,0.5-1.1,0.3-1.7c1,1,2,2,2.9,3c0.9,1,1.8,2.1,2.6,3.1c0.8,1.1,1.7,2.2,2.1,3.5
		c0.4,1.2,1.9,1.8,1.9,3.3c-0.1,0.1-0.3,0.2-0.4,0.3c0.1,0.5,0.7,0.3,1.1,0.6c0.3,1.2,1.5,2.2,1,3.7c0.5,0.2,0.8,0.5,1,1.1
		c1.1,3.3,1.9,6.7,2.3,10.2c0.3,2.6,0.3,5.3,0.2,7.9c0,0.6-0.2,1.1-0.1,1.6c-0.5,0.1-1,0.1-1.6,0.2c0.1,0.9,0.7,0.1,0.9,0.3
		c0.1,0.3,0,0.6,0.2,0.9c0.6,1.1,0.2,1.6-1,1.5c0.2,0.6,0.2,0.6,1,0.5c0,0.4-0.4,0.5-0.5,0.9c0.4,0.6,0.4,0.6,0,2.1
		c-0.3,0.3-0.9,0.2-1,0.7l0,0c-0.2,0-0.6-0.1-0.6,0.1c-0.1,0.5-0.5,0.2-0.7,0.5c0.1,0.5,0.8,0.5,0.7,1.1c0.2,0,0.4-0.1,0.5,0
		c0.4,1.2,0.4,1.2-0.2,2.3c-0.4-0.2-0.1-0.5-0.1-0.7c-0.4-0.6-0.8-1-1.6-0.8c-0.2-0.4,0.3-0.3,0.4-0.5c-0.1-0.2-0.1-0.5-0.4-0.8
		c-0.4-0.2-0.9,0-1.5,0.2c0.3,0.7,0.9,1.2,1.3,1.8c0.1,0.1,0.4,0.5,0.7,0c0.2,0.6,0.2,1.3,1.1,1.3c-0.2,0.8-0.5,1.4-0.7,2
		c-0.6,0-1.1,0-1.1-0.7c-0.8-0.1-0.6,1.2-1.4,1c-0.2,0.2-0.1,0.3,0,0.3c0.4,0.2,0.4,0.5,0.2,0.8c-0.1,0.3-0.5,0.5-0.8,0.4
		c-0.4-0.1-0.8,0.1-1.1,0c-0.1-0.2-0.2-0.4-0.3-0.5c-0.3,0.1-0.1,0.4-0.4,0.6c-0.5,0.1-0.6-0.5-1-0.6c-0.1-0.2,0.2-0.4-0.1-0.6
		c-0.1,0-0.1,0-0.2,0.1c-0.2,0.1,0.1,0.8-0.5,0.5c-0.1,0-0.3,0.2-0.4,0.4c0,0.7,0.4,0.9,1,1c0.2-0.2,0.4-0.3,0.6-0.5
		c0.2,0.1,0.5,0.1,0.5,0.5c0.9-0.6,1.8-0.1,2.7-0.1c0.1-0.1,0.2-0.3,0.4-0.4c0,0.2,0.1,0.3,0.1,0.5l0,0c-0.2,0-0.3,0.1-0.4,0.3
		c0.1,0.3,0.4,0.5,0.5,0.8c-0.1,0.4-0.3,0.7-0.5,1c-0.1-0.4-0.2-0.7-0.3-1.1c-0.1-0.3-0.4-0.4-0.6-0.2c-0.2-0.3-0.6-0.2-1-0.2
		c0.4,0.6,0,1,0,1.5c-0.5,0-0.6,0.4-0.7,0.7c0.2,0.4,0.4,0,0.7,0.2c-0.4,0.8-0.5,1.7-0.9,2.5c0,0.3,0.4,0.4,0.4,0.7
		c-0.1,0.5-0.6,0.6-0.9,0.8c-0.3,0.2-0.7,0.4-0.9,0.7c-0.3,0.1-0.6-0.1-0.9-0.1c-0.1,0.2-0.2,0.3,0,0.4c0.3,0.2,0.6,0.4,0.8,0.8
		C86,80.6,85.2,81.6,84.2,82.5c0-0.3,0.3-0.5,0.1-0.8c-0.2,0.1-0.5,0-0.8,0.2C83.5,82.4,83.8,82.6,84.2,82.5z M6.5,62.4
		c0.3-0.3,0.2-0.6,0.1-0.9c-0.2-0.2-0.4-0.1-0.6,0c0,0.3,0.1,0.6,0.3,0.8c-0.1,0.4-0.7,0.6-0.5,1.4C6.1,63.2,6.9,63.1,6.5,62.4z
		 M81.2,19.1c-0.3-0.3-0.6-0.4-0.9-0.6c-0.1,0.2-0.2,0.4,0.1,0.7c0.2,0,0.5,0,0.7,0.1c0.5,0.5,0.9,0,1.3,0c-0.1-0.4-0.2-0.6-0.4-0.8
		C81.7,18.6,81.6,19.1,81.2,19.1z M31.5,90.5c0.4-0.1,0.7,0,1.1,0.1c0-0.5-0.2-0.7-0.4-0.9c-0.2,0-0.5-0.1-0.7,0
		c-0.1,0.2-0.1,0.4-0.2,0.6c-0.3,0.2-0.5,0.4-0.6,0.7c0.1,0.3,0.2,0.5,0.4,0.9C31.3,91.3,32,91.1,31.5,90.5z M43.1,8.5
		c-0.3-0.4,0.4-0.5,0.2-0.8c-0.7,0-0.7,0-1,1.1C42.7,8.9,43,9,43.2,8.7c0.1,0.1,0.2,0.2,0.3,0.4c0.2-0.2,0.4-0.4,0.3-0.7
		c-0.1-0.1-0.2-0.1-0.3-0.2C43.3,8.2,43.2,8.3,43.1,8.5z M18.6,76.6c0,0.3-0.3,0.7,0.2,0.9c0.3,0.1,0.4-0.1,0.6-0.3
		c-0.1-0.3-0.1-0.7-0.6-0.7c0-0.2,0-0.5-0.2-0.6c-0.8,0.1-0.8,0.1-1.1,0.9c-0.1,0-0.2,0.1-0.4,0.1c0,0.4,0,0.8-0.1,1.2
		c0.2,0.2,0.5,0.4,0.7,0.6c0.2-0.1,0.4-0.2,0.5-0.3c-0.1-0.6-0.3-1.1-0.6-1.5C17.9,76.5,18.3,76.6,18.6,76.6z M83.6,76.3
		c0.5,0.3-0.3,0.8,0.3,1.2c0.1-0.6,0.9-1,0.6-1.7c-0.5-0.2-0.7,0-0.9,0.4c-0.2-0.4-0.6-0.4-0.8-0.9c-0.1,0.2-0.1,0.3-0.1,0.4
		c0,0.2,0,0.3,0,0.4c0.2,0.2,0.5,0.4,0.8,0.4C83.4,76.5,83.5,76.4,83.6,76.3z M5.6,44.4c0.2-0.1,0.3-0.2,0.4-0.5
		c-0.3-0.5-0.7-0.4-1.2-0.3C5,43.8,5.1,43.9,5.2,44c-0.4,0.4-0.5,0.8-0.1,1.2c0.1-0.1,0.2-0.1,0.4-0.2c0.2,0,0.2,0.4,0.4,0.4
		c0.4-0.2,0.8-0.3,0.5-0.9C6.1,44.5,5.9,44.5,5.6,44.4z M85.8,72.7c0.4,0.3,0.3,0.7,0.5,1.1c0.4-0.8,0.8-1.6,0.7-2.6
		c-0.2-0.1-0.4-0.2-0.6-0.2c-0.3,0.4,0,0.9-0.2,1.3c-0.1-0.6-0.6-0.4-1-0.3C85.6,72.2,85.6,72.5,85.8,72.7z M70.9,84.1
		c-0.5,1.3-0.5,1.3-1.4,1.5c0.4,0.5,1,0.2,1.4,0.3c-0.3,0.9,0.4,1.7-0.1,2.6c0.7-0.1,1.2-0.4,1.7-0.2c0,0.2,0,0.4,0.1,0.6
		c0.3,0.1,0.4-0.1,0.7-0.3c-0.3-0.1-0.1-0.5-0.5-0.5c-0.1,0-0.1,0.1-0.2,0.1c-0.4-0.7-1-1.2-1.2-2c-0.1-0.2-0.3-0.3-0.4-0.4
		c0.2-0.3,0.6,0,0.8-0.3c0.1-0.2,0-0.4-0.1-0.6c-0.1-0.2,0-0.4-0.2-0.5c-0.2-0.1-0.4-0.1-0.6-0.2c0.2-0.1,0.3-0.2,0.4-0.4
		c-0.2-0.4-0.5-0.4-0.9-0.4c0.3-0.2,0.6-0.4,0.9-0.6c0.8-0.6,1.5-1.4,2.7-1.7c0.1,0,0.6-0.1,0.6-0.7c0-0.5,0.6-0.8,1.2-0.8
		c0,0.2,0,0.5,0.2,0.7c0.3,0,0.5,0.1,0.7-0.1c0-0.5-0.7-0.3-0.8-0.7c-0.1-0.3,0.1-0.5,0.2-0.6c1.5-1.3,2.8-2.8,4-4.4
		c0.2-0.2,0.5-0.2,0.7-0.3c0.2-1,0.9-1.7,1.4-2.4c0.9,0.3,0,0.9,0.4,1.3c0.4-0.4,0.7-0.7,1.1-0.8c0.1-0.5-0.4-0.6-0.4-1
		c0-1,0.1-1.9,0.9-2.6c0.2-0.2,0.3-0.3,0.3-0.6c0-0.7,0.5-1.3,0.8-2c0.1-0.4,0.4-0.4,0.8-0.4c0.3,0.6,0.9,0.7,1.5,0.6
		c0.1-0.9-0.4-1.6-0.1-2.4c-0.1,0-0.2,0-0.2,0c-0.2,0.5-0.4,1.1-0.5,1.6c-0.2,0-0.3,0-0.5,0c0.1-0.4-0.3-0.7-0.2-1.2
		c0.7-0.3,0.1-1.5,1.1-1.7C87,62,87,61.9,87.8,59.9c0.3-0.1,0.2,0.3,0.6,0.3c0.2-0.1,0.5-0.2,0.9-0.4c-0.5-0.3-0.9-0.5-1.4-0.7
		c0.1-0.7,0.4-1.3,0.5-2.1c0-0.6-0.1-1.2,0.7-1.6c0.2-0.1,0-0.5-0.2-0.7c0.2-0.3,0.6-0.2,0.8-0.5c-0.3-0.2-0.6-0.1-0.9-0.4
		c0.4-5.8-0.3-11.6-2.4-17.1c-2.1-5.5-5.3-10.4-9.6-14.5c0.3-0.6-0.1-1.2-0.1-2c-0.5,0.4-0.4,0.9-0.5,1.4c-0.5-0.4-0.8-0.7-1.3-1.1
		c-0.6-0.5-0.8-1.1-0.6-1.8c0.1-0.3,0.2-0.5,0-0.8c-0.5,0.2-0.8,0.7-1,1.2c-1.8-1.1-3.4-2.4-5.3-3.4c0,0,0-0.1,0-0.1
		c0.2-0.2,0.6,0,0.7-0.4c-0.6-0.3-0.5-0.9-0.3-1.4c-0.3-0.1-0.6-0.2-0.8-0.3c-0.3,0.2-0.6,0.4-0.8,0.6c0,0.5,0.3,0.5,0.6,0.6
		c-0.2,0.2-0.5,0.3-0.8,0.3c-0.7-0.3-1.4-0.6-2.3-1c0.3-0.1,0.5-0.1,0.7-0.1c-0.1-0.4-0.3-0.8-0.1-1.2c0.3-0.5,0.1-1.1,0.3-1.6
		c0.1-0.6-0.1-1.1-0.6-1.1c-0.4,0-0.9,0.1-1.2,0.5c-0.3,0.4-0.2,0.8-0.2,1.2c0.1,0.6,0.3,1.2,0,1.9c-1.4-0.4-2.8-0.8-4.2-1.3
		c0.1-0.3-0.1-0.5-0.4-0.6c-0.8,0.3-0.8,0.3-1.5,0.2c-2.4-0.4-4.9-0.6-7.4-0.7c-1,0-1.9,0.3-2.9,0.1c-0.3-0.5-0.7-0.8-1.2-0.5
		c-0.2,0.3,0.2,0.4,0.1,0.7c-1,0.1-2,0.2-3,0.4c-0.5,0.1-1.1-0.1-1.6,0.4c-0.3,0.3-0.7,0.1-1-0.1c0-0.2-0.1-0.4-0.1-0.6
		c-0.3-0.2-0.6-0.2-0.9,0C39,12,39,12.2,39.2,12.4c0.2,0.1,0.5-0.2,0.7,0.1c0,0.2,0,0.3-0.2,0.4c-0.6,0.2-1.2,0.5-1.8,0.5
		c-0.3,0-0.6-0.1-0.8,0.2c-0.5,0.6-1.2,0.5-1.8,0.3c-0.1,0.5-0.3,0.8-0.7,0.9c-0.3,0.1-0.7,0.2-1,0.4c-3.8,1.9-7.3,4.2-10.4,7.2
		c-1.7,1.6-3.1,3.6-4.8,5.3c-0.7,1.7-2,3.1-2.8,4.8c-0.1,0.3-0.2,0.6-0.5,0.8c-0.7-0.3-0.3-1.1-0.8-1.5c-0.6,0.9-0.2,1.5,0.5,2
		c-0.1,0.4-0.6,0.1-0.6,0.6c0.3,0.3,0.2,0.7,0,1.1c-1,2.5-1.9,5.1-2.3,7.7c-0.2,1.5-0.5,2.9-0.6,4.4c-0.1,2.7-0.2,5.4,0.3,8
		c0.3,1.4,0.1,2.9,0.7,4.3c0.1,0.3,0.3,0.6,0.3,0.9c0.2,0.7-0.2,1.1-0.8,1c-0.5-0.1-0.7,0.1-1.2,0.3c0.5,0.2,0.7,0.9,1.1,1.1
		c0.6,0,0.7-0.8,1.4-0.6c0.2,0.9-0.8,1.1-1,1.7c0.1,0.2,0.1,0.7,0.6,0.7c0.2-0.4,0-1.1,0.9-1c0.5,1.8,1.7,3.3,2.1,5.1
		c0,0.2,0.1,0.5,0.4,0.5c0.3,0.1,0.4,0.4,0.6,0.7c0,0.2-0.4,0.4-0.2,0.6c0.8,0.1,1.2,0.6,1.3,1.6c-0.5-0.3-0.9-0.6-1.3-0.3
		c0.4,0.6,0.4,0.6,1.2,0.9c-0.3,0.5-0.3,1.1,0.1,1.7c0.4-0.2,0.7,0.1,0.9,0.3c0.4-0.5-0.2-1,0.3-1.4c0.7,0.9,1.4,1.7,2.1,2.5
		c-0.1,0.5-0.2,1-0.3,1.3c-0.2,0.4-0.8,0-0.9,0.6c0.1,0.4,0.6,0.3,0.8,0.8c0.2,0.4,0.7,0.4,1.1,0c-0.4-0.6,0.2-1,0.5-1.7
		c0.9,1,1.6,1.9,2.4,2.8c-0.1,0.1-0.7,0-0.3,0.6c0.2,0.3,0.6,0,0.8,0.4c-0.2,0.2-0.4,0.1-0.6,0.4c0.5,0.5-0.1,1.4,0.7,1.8
		c0.6-0.2,0.8-0.7,0.9-1.2c-0.2-0.4-0.6-0.7-0.2-1.2c0.5,0.4,1,0.7,1.4,1.1c2.5,1.8,5.2,3.3,8,4.5c3.6,1.4,7.4,2.4,11.2,2.7
		c2.3,0.2,4.6,0.3,6.9,0c0.5-0.1,1-0.1,1.3,0.1c1.5-0.5,3-0.9,4.6-0.7c0.1-0.7,0.7-0.6,1.3-0.7c0.4-0.1,0.7-0.2,1.1-0.3
		c1.2-0.5,2.3-1.1,3.6-1.3c0.7-0.1,1.1-0.8,1.8-0.7c1-0.9,2.2-1.4,3.3-2C70.6,83.7,70.8,83.9,70.9,84.1z M24.1,18.2
		c-0.1,0.2-0.3,0.4-0.1,0.6c0.2,0.2,0.5,0.1,0.7-0.1c0.2-0.2,0.6,0,0.7-0.4c-0.1-0.1-0.2-0.3-0.4-0.6c0.5-0.6,0.5-0.6-0.3-1.2
		c-0.4,0.3-0.8,0.5-1.1,0.8C23.6,17.8,23.8,18,24.1,18.2z M51.3,9.8c0,0.6,0.1,1.1,0.8,1.3c0.1-0.3,0.1-0.7,0.2-1
		C52,10,51.7,9.8,51.4,9.7c0-0.2-0.1-0.4,0.1-0.5c0.4,0,0.3,0.5,0.7,0.5c0.3-0.3,0.3-0.7,0.6-1.1C53,8.8,53,9.1,53.4,9.1
		c0.1-0.1,0.2-0.2,0.3-0.3c-0.3-0.9-1.1-1.4-1.6-1.1c0,0.2,0.2,0.4,0.1,0.6c-0.6,0.1-1.2,0.5-1.8,0.9C50.7,9.4,51,9.6,51.3,9.8z
		 M71.8,14.5c-0.2-0.4,0.2-0.8-0.1-1.3c-0.6-0.2-0.9,0.3-1.5,0.5c0.6,0.3,0.8,1,1.5,0.9c-0.4,0.4-0.6,0.8-0.9,1.3
		c0.5,0.5,1,1,1.6,1.5c-0.2-0.7,1.2-0.7,0.7-1.6c-0.3,0-0.6,0.2-0.8,0C72.3,15.4,72.4,14.8,71.8,14.5z M14.6,79
		c-0.1,0-0.2,0.1-0.5,0.1c0.4,0.4-0.2,1,0.5,1.3c0.5-0.3,0.6-0.8,1-1c-0.2-0.3-0.4-0.4-0.6-0.5c0.1-0.3,0.5,0,0.7-0.4
		c-0.3-0.7,0.1-1.1,0.7-1.5c-0.3-0.2-0.5-0.5-1-0.4c-0.1,0-0.1,0.5-0.4,0.4c-0.6-0.4-1.5-0.6-1.7-0.3c0,0.2-0.1,0.5,0.1,0.7
		c0.2,0.3,0.7-0.1,0.8,0.3c0.1,0.4,0.5,0.3,0.8,0.4c-0.4,0.1-0.7,0.4-1.1,0.1c-0.2-0.1-0.3,0.1-0.3,0.3C13.7,79.1,14.2,78.8,14.6,79
		z M9.8,67.3c0.3,0.5,0.3,1,0.2,1.5c-0.1,0.3-0.1,0.5,0.1,0.7c0.2,0.2,0.5,0.2,0.8,0c0.3-0.2,0.5-0.6,0.6-1c0.4-0.2,0.8,0,1.3-0.3
		c-0.3-0.1-0.6-0.3-0.9-0.3c-0.5,0.1-0.6-0.1-0.7-0.4c0.1-0.5,0.9-0.3,0.9-1c-0.4,0-0.8,0-1.1-0.1c-0.3,0.2-0.1,0.6-0.3,0.7
		C10.3,67.1,10.1,67,9.8,67.3z M35.3,9.4c-0.8-0.4-1.4-0.6-2.1-0.3c-0.3,0.3,0.2,0.5,0,0.8c-0.2,0.1-0.4,0.1-0.5,0.3
		c0.2,0.4,0.2,0.9,0.7,0.8c0.4-0.1,0.1-0.5,0.3-0.6c0.3,0.2,0.4,0.5,0.8,0.5c0.1-0.2,0.2-0.3,0.2-0.4c0.2-0.3,0.5,0.2,0.6-0.3
		c0-0.3-0.5-0.2-0.5-0.5C34.9,9.6,35,9.5,35.3,9.4z M40.3,7.9c-0.9,0.1-1.1,0.7-1.1,1.2c0,0.3,0.3,0.2,0.3,0.3
		c-0.2,0.5-0.2,0.5,0,1.1c0.4-0.3,1-0.2,1.4-0.4c0-0.3-0.3-0.3-0.3-0.5c0-0.3,0.5-0.3,0.4-0.6C40.5,8.6,40.5,8.6,40.3,7.9z
		 M8.4,62.8c-0.1,0.8-0.7,1.3-0.7,2.1C7.9,65,8,65.1,8.1,65.1c0.4,0,0.8-0.3,1.1-0.2c0.3-0.4,0.2-0.8,0.1-1.2
		C9,63.4,8.7,63.2,8.4,62.8z M84.7,76.5c1.3,0.3,1.3,0.3,1.8-1.1c-0.2-0.2-0.3-0.5-0.6-0.5c-0.5,0.5-0.5,0.5-1.2,0.7
		C84.6,75.9,84.8,76.1,84.7,76.5z M21.3,82.6c0,0.4,0,0.8,0,1.2c-0.3,0.1-0.6,0.2-0.6,0.6c0.4-0.1,0.8-0.2,1.1-0.1
		c0.6-0.7,0.7-1.5,0.4-2.3C21.9,82.2,21.6,82.4,21.3,82.6z M11.4,72.9c0.8-0.2,0.6-1,0.5-1.3c-0.4-0.6,0.1-0.8,0.3-1.1
		c-0.9-0.6-1,0.3-1.5,0.6C11.3,71.6,10.8,72.4,11.4,72.9z M28.8,91.2c-0.1-0.7-0.4-1.2-0.1-1.7c-0.6-0.1-1.1-0.2-1.6-0.3
		c0,0.4,0,0.7,0.1,1.1C27.7,90.5,28.2,90.8,28.8,91.2z M18.1,79.9c-0.7-0.3-1,0.2-1.4,0.6c-0.1,0.5-0.1,0.9,0.6,1.1
		c0.1-0.6,0.7-0.7,1.1-0.9C18.4,80.3,18.3,80.1,18.1,79.9z M46.8,7.3c0.7-0.4,1.4-0.6,1.4-1.5c-0.1-0.2-0.3-0.4-0.6-0.4
		c-0.3,0.2-0.5,0.4-0.8,0.6C46.7,6.4,46.7,6.8,46.8,7.3z M38.5,6.1c-0.2,0.6-1.1,0.7-1,1.4c0.4,0.5,0.9,0.3,1.3,0.2
		C39.1,7.1,39.1,7.1,38.5,6.1z M61.7,92.2c0.4,0.2,0.7,0.2,0.9,0c0.3-0.4,0.8-0.3,0.9-0.8c0.1-0.4,0-0.6-0.2-0.7c-0.7,0-0.3,1-1,0.8
		c-0.1-0.1,0-0.5-0.4-0.4C61.5,91.5,61.6,91.9,61.7,92.2z M50.5,8.8c0.4-0.5,0.5-1,1.1-1.3c-0.3-0.2-0.6-0.4-0.8-0.6
		c-0.3,0.1-0.5,0.2-0.9,0.3C50.5,7.6,49.7,8.4,50.5,8.8z M36,7.3c-0.4-0.9-1.2,0-1.7-0.7c-0.1,0.4-0.2,0.6,0.1,1
		c0.5-0.2,0.7,0.3,1.1,0.5C35.8,7.9,35.9,7.7,36,7.3z M74.1,14.1c-0.8,0-1.2-0.4-1.7-0.8c-0.2,0.9,0,1.4,0.6,1.7
		C73.5,14.9,73.5,14.4,74.1,14.1z M54.5,9.7c0.5,0.2,0.9,0.1,1-0.4c0.1-0.6-0.1-1-0.9-1.2C55,8.7,54.3,9.1,54.5,9.7z M88.1,65.5
		c-0.1,0.2,0.3,0.3,0.3,0.6c-0.2,0.1-0.5,0.1-0.3,0.4c0.7,0.1,1.2-0.2,1.2-0.7c-0.1-0.2-0.2-0.4-0.3-0.7
		C88.7,65.4,88.5,65.1,88.1,65.5z M8.4,33.6c-0.5-0.3-0.1-0.8-0.5-1.1c-0.5,0.2-0.7,0.7-0.8,1.1C7.6,34.2,8,33.7,8.4,33.6z
		 M91.3,65.3c-0.1,0.4-0.4,1,0.4,1.4c0.1-0.6-0.3-1.1,0.1-1.6c-0.4-0.3-0.4-1.1-1.2-0.8C90.8,64.7,91.2,64.9,91.3,65.3z M9.5,61.7
		c-1.1-0.2-1.1-0.2-1.5,0.6c0.4,0.1,0.8,0.1,1.3,0.2C9.3,62.2,9.7,62.1,9.5,61.7z M45,93.6c0-0.5,0.2-0.8,0.4-1.1
		c0-0.1-0.1-0.2-0.1-0.3c-0.3,0.2-0.7,0.1-1.1,0.4c0.3,0.3,0,0.8,0.4,1.1C44.6,93.6,44.8,93.6,45,93.6z M76.2,14.4
		c0.5-0.2,0.8-0.5,1.1-1c-0.4-0.2-0.6-0.5-0.9-0.8C76.3,13.3,75.9,13.7,76.2,14.4z M55.4,4.5c-0.1,0.6-0.1,1.1,0.1,1.6
		c0.6-0.2,0.8-0.6,0.9-1C56.2,4.7,55.9,4.6,55.4,4.5z M81.5,24.7c0.1-0.3,0.2-0.6,0.3-0.9c-0.3-0.1-0.6-0.3-1-0.3
		c0,0.3,0,0.7-0.3,0.9C80.8,24.4,81.1,24.7,81.5,24.7z M6.6,58.2c0.1-0.3,0.5-0.7,0.1-1.2c-0.6,0.1-0.8,0.5-1.1,0.9
		C5.9,58.1,6.1,58.4,6.6,58.2z M25.1,89.1c0.2-0.3,0-0.6-0.1-0.9c0.3-0.1,0.4-0.2,0.3-0.5c-0.2-0.1-0.4-0.2-0.7,0.1
		c0,0.4-0.5,0.8-0.2,1.2C24.7,89.3,24.9,89.3,25.1,89.1z M87.4,72.3c0.7-0.1,0.2,0.9,0.9,0.8c0.2-0.5,0.6-1.1,0-1.7
		C88,71.8,87.7,72.1,87.4,72.3z M60.9,12.9c0.5-0.2,0.2-0.7,0.6-0.7c0.4-0.1,0.3-0.4,0.2-0.6c-0.4,0-0.8-0.1-1.2,0
		C60.2,12.2,61,12.3,60.9,12.9z M11.1,63.5c-0.3,0.3-0.9,0-1.2,0.6c0.6-0.1,0.8,0.3,1.2,0.4c0.2-0.1,0.4-0.3,0.6-0.4
		C11.6,63.9,11.5,63.8,11.1,63.5z M64.1,9.6c-0.4-0.4-0.8-0.3-1.2-0.3c0,0.4-0.5,0.8,0,1.1C63.3,10.2,63.7,9.9,64.1,9.6z M7.2,37.2
		c-0.1,0.6-0.6,0.2-0.8,0.7c0.2,0.2,0.4,0.4,0.7,0.7c0.2-0.3,0.7-0.2,0.8-0.7C7.8,37.7,7.6,37.6,7.2,37.2z M8.1,36.2
		c0.7-0.5,0.7-0.5,0.2-1.4c-0.2,0.1-0.5-0.1-0.7,0.1c-0.1,0.3,0.1,0.4,0.3,0.6C8.2,35.7,7.9,35.9,8.1,36.2z M88,27.7
		c-0.2-0.5-0.6-0.7-1.2-0.6c0.1,0.4-0.1,0.8,0.4,1.2C87.3,27.9,87.8,28.1,88,27.7z M76.7,16.5c0-0.7,0-1.3,0.4-1.7
		c-0.3-0.2-0.5-0.2-0.8,0C76.3,15.2,76,15.8,76.7,16.5z M64.5,91.8c0.7,0,0.3,0.8,0.8,1c0.2-0.1,0.4-0.2,0.3-0.3
		c-0.1-0.3,0-0.7-0.3-1C65,91.2,64.8,91.4,64.5,91.8z M57.9,6.3c0.1-0.6,0.6-1.2-0.2-1.7C57.4,5.3,57.5,5.8,57.9,6.3z M18.5,79.3
		c-0.5-0.4-0.9-0.7-1.6-0.1C17.4,79.5,17.8,80,18.5,79.3z M12,28c0.2-0.4,0.2-0.8,0.1-1.1c-0.6-0.3-0.8,0.1-0.9,0.6
		C11.5,27.7,11.6,27.9,12,28z M79.3,21.3c0.6-0.4,0.2-0.7,0-1c-0.4,0.1-0.6,0.3-0.8,0.7C78.8,21.1,79,21.3,79.3,21.3z M26.6,84.4
		c-0.3-0.4-0.2-0.9-0.6-1.1c-0.2,0.2-0.4,0.4-0.6,0.6C25.7,84.2,25.9,84.6,26.6,84.4z M20.3,82.6c-0.6,0-0.6,0-0.8,0.6
		c0.3,0.1,0.5,0.2,0.8,0.2C20.5,83.1,20.5,82.8,20.3,82.6z M20,82.3c-0.1-0.6-0.2-1.1-0.3-1.2c-0.4,0.3-0.4,0.7-0.2,1.2
		C19.7,82.3,19.8,82.3,20,82.3z M57.9,8.1c0.3-0.4,0-0.8,0.2-1.3c-0.7,0.3-0.9,0.6-0.7,1.2C57.6,8.1,57.8,8.1,57.9,8.1z M57.7,10
		c-0.2-0.4,0-0.8,0-1.3C56.8,9.4,56.8,9.5,57.7,10z M78.2,22.5c0.5,0.3,0.9,0.2,1.4-0.4C79,22,78.6,21.8,78.2,22.5z M52.3,91.5
		c0.1,0.4,0.2,0.5,0.6,0.6c0.2-0.3,0.5-0.5,0.1-1C52.8,91.2,52.5,91.3,52.3,91.5z M5.4,59.2c0-0.3,0.3-0.4,0.2-0.7
		c-0.2-0.3-0.5-0.4-0.9-0.1C5.2,58.5,4.6,59.2,5.4,59.2z M7.8,69.7c0.2-0.1,0.4-0.3,0.3-0.6c-0.3-0.2-0.5-0.5-1-0.3
		C7.1,69.4,7.4,69.6,7.8,69.7z M61.5,7.9C61.1,7.5,61.7,7,61,6.7c-0.1,0.3-0.4,0.4-0.3,0.8C60.8,7.7,60.9,7.9,61.5,7.9z M58.7,9
		c0.5-0.6,0.5-0.6-0.3-0.9C58.2,8.5,58.2,8.8,58.7,9z M66.2,9.8c0.4,0,0.4-0.4,0.5-0.6C66.4,9,66.3,8.7,66,8.7
		C66,9.3,66,9.3,66.2,9.8z M69.3,9.4c0.1,0.4,0.1,0.8,0.2,1.3c0.4-0.5,0.3-0.9,0.5-1.3C69.8,9.2,69.6,9.2,69.3,9.4z M79.5,16.8
		c-0.5-0.1-1.1-0.6-1.5,0.3C78.5,16.9,79,17.2,79.5,16.8z M83.8,26.1c0.3,0,0.5,0.1,0.6-0.2c0-0.4-0.3-0.6-0.6-0.7
		C83.6,25.5,83.7,25.7,83.8,26.1z M92.2,57.1c-0.1,0.4-0.4,0.7-0.6,1.1c0.3,0.1,0.5,0.2,0.7,0.3C92.4,58,92.5,57.6,92.2,57.1z
		 M59.7,91.3c0-0.6,0.7-0.9-0.1-1.4C59.5,90.3,59.1,90.6,59.7,91.3z M11.3,38.1c0,0.9,0.1,1.1,0.6,0.9c0-0.2,0-0.4,0-0.7
		C11.7,38.3,11.6,38.2,11.3,38.1z M89.9,67.4c0.4,0,0.2-0.3,0.4-0.4c0.2-0.1,0.4-0.2,0.3-0.5C89.7,66.5,89.7,66.5,89.9,67.4z
		 M59.6,92.3c0.7,0.1,0.7,0.1,1.1-0.3c-0.1-0.2-0.2-0.4-0.6-0.4C59.9,91.8,59.8,92,59.6,92.3z M55.3,11.5c0.6-0.5,0.6-0.8,0-1.2
		C55.1,10.7,55.1,11,55.3,11.5z M28.7,13.1c0.2-0.3,0.2-0.6-0.1-0.9c-0.2,0.2-0.6,0.1-0.6,0.5C28.2,13,28.4,13,28.7,13.1z M18.8,22
		c0.4,0,0.6-0.2,0.6-0.6c-0.2-0.2-0.5-0.2-0.7,0C18.7,21.6,18.6,21.8,18.8,22z M60.5,89.6c0.1,0.4,0.6,0.5,0.8,0.8
		C61.4,89.4,61.4,89.4,60.5,89.6z M67.1,89.5c0.2-0.3,0.6-0.1,0.8-0.4c-0.2-0.3-0.5-0.5-0.9-0.2C66.9,89,66.9,89.2,67.1,89.5z
		 M33.3,89c-0.6-0.8-0.7-0.8-1.2-0.4C32.5,88.8,32.8,89,33.3,89z M28.5,84.5c-0.3,0.1-0.6-0.3-0.9,0.1c0.2,0.3,0.4,0.6,0.8,0.6
		C28.6,85,28.6,84.8,28.5,84.5z M78,80.7c-0.6-0.5-0.6-0.5-0.9,0.3C77.4,81,77.7,81.2,78,80.7z M79.3,77.8c0.8-0.7,0.9-1,0.4-1.3
		C79.5,76.9,79.6,77.3,79.3,77.8z M89.3,61.7c0.8,0,0.9-0.2,0.7-0.9C89.6,61,89.5,61.4,89.3,61.7z M88.4,63.7
		c-0.2-0.5-0.5-0.8-0.7-1.1C87.6,63.4,87.6,63.4,88.4,63.7z M12.9,72.5c0,0.3,0,0.5,0.1,0.6c0.3-0.2,0.6,0.3,0.9-0.1
		c-0.1-0.2-0.2-0.3-0.2-0.5C13.4,72.5,13.2,72.5,12.9,72.5z M47.2,5.3c0.6-0.3,0.8-0.7,1.1-1.1C47.4,4.1,47.3,4.6,47.2,5.3z
		 M45.9,9.7c0.2,0.2,0.4,0.2,0.6,0.3c0.2-0.3,0.2-0.6,0-0.8C46.1,9.2,46,9.4,45.9,9.7z M50.4,10.7c0-0.3,0.4-0.5,0.2-0.9
		c-0.3,0.1-0.6,0.1-1.1,0.3C50,10.2,50,10.5,50.4,10.7z M7.3,41.2c-0.6-0.2-0.6-0.2-1.1,0C6.6,41.6,6.8,41.6,7.3,41.2z M10.6,47.9
		c-0.2-0.2-0.5-0.2-0.7-0.4c-0.1,0.4,0,0.7,0.4,0.8C10.4,48.3,10.6,48.1,10.6,47.9z M59.5,92.6c0.2,0.4,0.4,0.6,0.6,0.9
		c0.2-0.1,0.3-0.2,0.4-0.4C60.2,92.9,60.1,92.5,59.5,92.6z M63.8,87.7c-0.3,0.4-0.3,0.6,0,0.9c0.1,0.1,0.1,0.1,0.2-0.1
		C64,88.3,64.3,88,63.8,87.7z M65.5,87c0.3-0.1,0.7-0.1,0.7-0.6C65.8,86.3,65.4,86.2,65.5,87z M88.7,67.6c0,0.4-0.4,0.7-0.1,1.2
		C88.9,68.4,89.3,68,88.7,67.6z M47.8,8.1c-0.2,0.4-0.2,0.8,0.1,1.1C47.9,8.9,48.4,8.5,47.8,8.1z M36.2,9.5c0.1,0.6,0.3,0.8,0.8,0.6
		C36.9,9.7,36.6,9.7,36.2,9.5z M31.9,10.1c-0.5-0.1-0.7,0.1-0.8,0.7C31.5,10.6,31.8,10.6,31.9,10.1z M69,12.2
		c-0.4,0.5-0.4,0.5,0.1,0.8C69.1,12.8,69.2,12.5,69,12.2z M58.3,91.7c0.3,0.5,0.6,0.6,1.1,0.2C59,91.6,58.7,91.6,58.3,91.7z M9.6,29
		c0,0.5,0,0.5,0.2,1.1C10.2,29.6,10.2,29.3,9.6,29z M7.6,40.4c0.1-0.3-0.1-0.4-0.4-0.6C7.2,40,7,40.2,7,40.4
		C7.2,40.6,7.5,40.6,7.6,40.4z M10.8,43.5c-0.6-0.3-0.6-0.3-0.9,0.1c0.2,0.1,0.4,0.3,0.6,0.2C10.6,43.7,10.7,43.6,10.8,43.5z
		 M9.4,47c0.7,0.2,0.7,0.2,1-0.3C10.1,46.8,9.8,46.9,9.4,47z M10.2,49.7c-0.3,0.1-0.6,0.3-0.6,0.6C10.3,50.4,10.4,50.2,10.2,49.7z
		 M11,55.1c0.1-0.3,0.2-0.5-0.2-0.7c-0.3,0.1-0.3,0.5-0.4,0.7C10.6,55.2,10.8,55.2,11,55.1z M93.1,59.4c-0.1-0.4-0.3-0.6-0.6-0.7
		c-0.2,0.1-0.3,0.2-0.3,0.4C92.4,59.3,92.6,59.5,93.1,59.4z M29.8,85.4c-0.5,0.2-0.7,0.4-1,0.7C29.4,86.2,29.7,86.1,29.8,85.4z
		 M22.6,78.4c-0.1,0.4-0.6,0.6-0.1,1c0.1-0.1,0.2-0.1,0.3-0.2C22.9,79,22.9,78.8,22.6,78.4z M92.5,66.4c0.4-0.4,0.4-0.4,0.3-0.7
		c0-0.1-0.2-0.1-0.3-0.2C92.3,65.8,92.3,66,92.5,66.4z"/>
	<path class="st0" d="M90.2,71.8c-0.1,0.3,0.3,0.5,0.4,0.8c-0.1,0.3-0.5,0.3-0.6,0.5C89.6,72.5,90.2,72.2,90.2,71.8z"/>
	<path class="st0" d="M92.4,70.5c-0.1-0.2-0.1-0.4-0.2-0.6c0.2-0.3,0.5-0.4,0.9-0.7C92.8,69.7,92.8,70.2,92.4,70.5L92.4,70.5z"/>
	<path class="st0" d="M90.1,73.2c0.3,0,0.5,0.3,0.8,0c0,0.3,0,0.5-0.3,0.7C90.2,73.8,90.3,73.4,90.1,73.2z"/>
	<path class="st0" d="M9,27.6c0-0.2,0.1-0.3,0.3-0.4c0.1,0.2,0.1,0.4,0,0.5C9.2,27.7,9.1,27.7,9,27.6z"/>
	<path class="st0" d="M91.7,70.7c0.2-0.1,0.5-0.2,0.7-0.2l0,0c0,0.2,0,0.5-0.3,0.6C91.9,71,91.8,70.9,91.7,70.7L91.7,70.7z"/>
	<path class="st0" d="M25.1,73.6c-1.2-1-1.8-2.4-2.5-3.7c-0.1-0.6,0.8-0.8,0.6-1.4c0-0.1-0.1-0.1-0.2-0.2c-0.4-0.1-0.5,0.3-0.8,0.5
		c-0.1-0.2-0.2-0.3-0.2-0.4c0.1-0.6-0.1-1.2-0.3-1.8c-0.2-0.5-0.5-1,0.1-1.5c0.2-0.2,0.1-0.5,0-0.8c-0.2,0-0.2,0.2-0.3,0.3
		c0,0-0.1,0-0.1,0c-0.2-0.3,0.1-0.9,0.6-1.2c-0.1-0.1-0.1-0.3-0.2-0.5c0.3,0,0.6,0.3,0.9,0c-0.1-0.3-0.4-0.5-0.2-0.9
		c-0.4-0.1-0.7-0.2-1,0.1c-0.1-0.3-0.2-0.9,0-0.9c0.6,0,0.3-0.7,0.8-0.7c0.2,0,0.2-0.5,0.5-0.6c-0.2-0.5-0.8-0.1-1.1-0.6
		c-0.1-0.7-0.3-1.5-0.3-2.3c0-2.7,0-5.4,0-8c0-0.2,0.1-0.5,0-0.4c0.2-0.7,0.7-0.5,0.9-0.8c-0.1-0.7-0.6,0-0.8-0.3
		c-0.2-0.3-0.2-0.6-0.1-0.9c0.2-1.2-0.1-2.3,0-3.5c0-1.2-0.1-2.3,0-3.5c0.1-1.7-0.1-3.3,0-5c0.2-5.8,4.5-10.7,8.9-12.1
		c1.7-0.6,3.4-0.9,5.1-0.9c3.5,0,7,0,10.6,0c0.2,0,0.4,0,0.5,0c0.4,0.2,0.1,0.4,0.2,0.6c0.1,0.2,0.3,0.2,0.5,0.1
		c0.3-0.1,0-0.4,0.2-0.6c0.4,0,0.8-0.2,1.2,0.2c0,0.4-0.5,0-0.5,0.4c0.6,0.5,0.7,0.5,1.2-0.6c0.4-0.1,0.8-0.1,1.1,0
		c0.4,0.2,0.1,0.6,0.4,0.8c0.3-0.2,0.1-0.5,0.3-0.7c0.4-0.2,0.8-0.1,1.3-0.1c1.6,0,3.1-0.1,4.7,0c1.4,0.1,2.7,0,4.1,0
		c1.4,0,2.7,0,4.1,0c2,0.1,3.9,0.7,5.7,1.7c0.6,0.4,1.1,0.9,1.8,1.1c0,0.8-1,1.5-0.2,2.3c-0.1,0.3-0.6,0-0.6,0.5
		c0.3,0.3,0.6-0.1,0.9,0.1c0.2-0.7,0.4-1.4,0.4-2.2c1.2,0.8,2,2,2.7,3.1c1.5,2.3,2.2,4.8,2.2,7.6c0,1.6,0.1,3.1-0.1,4.7
		c-0.1,0.5,0.1,1.1,0.1,1.6c0,3.5,0,7,0,10.5c0,1.4,0,2.8,0,4.1c0,0.5,0,1-0.4,1.2c0.6,1.2,0.6,2.3,0.1,3.6c0.5,0.5,0.3,1.3,0.3,1.9
		c-0.2,0.5-0.7,0.4-1,0.5c0.1,0.6,0.8,0.6,1,1.2c-0.6,0.4-1.3,0.4-2.1,0.5c0.4,0.6,1.2,0,1.6,0.7c-0.1,0.4,0.3,1-0.2,1.6
		c-1.1,0.3-1.2,0.6-0.6,1.5c0.5-0.3,0.4-0.9,0.7-1.3c-0.1,1.6-0.8,2.9-1.7,3.4c-0.1,0.3,0,0.6-0.2,1c-1.4,2.1-3.1,3.7-5.4,4.7
		c-2,0.8-3.9,1.5-6.2,1.3c-1.5-0.1-3.1,0-4.6,0c-8,0.1-16.1,0-24.1,0c-1.6,0-3.2-0.3-4.6-0.8c-0.3-0.4-0.1-0.9-0.3-1.2
		c-0.3,0.2-0.2,0.7-0.7,0.8c-0.5-0.2-1-0.5-1.5-0.8c-0.6-0.3-1.3-0.5-1.5-1c-0.2-0.5-0.5-0.9-0.9-1.4C25.7,74,25.4,74.2,25.1,73.6
		c0.5-0.5,0.8-1.3,1.3-1.8c1.1-1.2,1.2-1.1,1.4-2.6c0-0.2-0.1-0.4,0.3-0.6c1.7,2.8,4.3,4.1,7.6,4.3c-0.2,0.6,0.3,1.2-0.1,1.7
		c-0.3,0.2-0.8,0.1-1.1,0.6c0.1,0.1,0.1,0.2,0.2,0.3c0.8-0.3,1.6-0.6,2.4-1.1c0.1-0.2,0.1-0.5-0.1-0.8c0-0.3-0.6,0.3-0.6-0.3
		c0.2-0.5,0.7-0.4,1.1-0.4c1.1,0,2.2,0,3.3,0c4.8-0.1,9.5,0,14.3,0c0.4,0,0.9-0.1,1.2,0.1c0.4,0.2,0.4,0.8,0.8,0.8
		c0.3-0.2,0-0.6,0.4-0.8c0.5-0.1,1-0.1,1.6,0c0.1,0.2-0.1,0.4,0.1,0.6c0.5,0.1,0.6-0.5,1.1-0.6c1.1,0,2.3,0,3.4,0c2.2,0,4.3-0.6,6-2
		c0.2-0.1,0.3-0.4,0.6-0.2c-0.3,0.3-0.2,0.7-0.3,1c0.3,0.1,0.5,0.1,0.6-0.1c0.1-0.3,0-0.5-0.2-0.8c0.2,0,0.5,0,0.6-0.2
		c0.2-0.4-0.2-0.7-0.1-1.1c1-1.2,1.4-2.8,1.8-4.4c0.5-0.1,1.1,0.2,1.4-0.5c-0.4-0.3-0.9,0-1.3-0.3c-0.1-0.2-0.1-0.5,0.1-0.7
		c0.4,0.5,0.7,0.5,1.2,0c-0.3-0.5-0.7-0.4-1.1-0.2c-0.4-1-0.4-1.4,0.2-1.7c0.4,0.3,0,0.7,0.1,1.1c0.7,0.3,0.9-0.2,1.3-0.6
		c-0.4-0.3,0.1-0.8-0.3-1.2c-0.4-0.1-0.7,0.5-1.4,0.2c0.3-1.2-0.7-2.4,0-3.6c0.4-0.2,0.5,0.2,0.8,0.1c-0.2-0.7,0.7-1.5-0.1-2.3
		c-0.1,0.2-0.3,0.3-0.4,0.5l0,0c-0.1-0.4-0.5-0.7-0.5-1.2c0.1-1.5,0.1-3,0.1-4.5c0.2,0,0.4,0,0.5,0c0.1,0.2,0.2,0.4,0.4,0.7
		c0.2-0.4,0.7,0,0.9-0.7c-0.5,0.2-0.8-0.1-1.2-0.1c-0.1-0.3-0.4-0.4-0.7-0.5c0.1-0.2,0.3-0.3,0.4-0.5c-0.8-0.9-0.4-1.9-0.5-2.9
		c-0.1-1,0-2.1,0-3.1c0-0.9-0.1-1.9,0.4-2.7c-0.4-0.2-0.4-0.7-0.4-1.1c0-1.2,0-2.3,0-3.5c0-0.9,0-1.9-0.3-2.7
		c-0.6-1.8-1.6-3.4-3.2-4.4c-0.4-0.3-0.7-0.6-0.8-1.1c-1.4,0.2-2.5-0.5-3.6-0.6c-0.2-0.6,0.5-1,0.2-1.5c0.2-0.1,0.5,0,0.6-0.2
		c0-0.1,0.1-0.3,0.1-0.5c0.3-0.5,0.2-0.9,0.1-1.5c-0.4,0.2-1,0-1.3,0.6c0.2,0.2,0.7,0.3,0.6,0.7c-0.3,0.3-0.4-0.1-0.6-0.1
		c-0.3,0.2-0.6,0.6-1.1,0.8c0.1,0.8-0.2,1.4-1.1,1.8c-1.1-0.2-2.5,0.4-3.7-0.4c-1.2,0.3-2.4,0.7-3.6,0c0.1-1-1.4-0.7-1.2-1.9
		c-0.7,1.1-0.7,1.3-0.3,2l0,0c-0.6,0.2-1.9,0.1-2.6-0.1c0-0.4-0.2-0.7-0.5-0.9c-0.3,0-0.5-0.1-0.6,0.3c0.2,0.4,0.4,0.7,0.9,0.7
		c-0.5,0.3-1-0.1-1.5-0.1c-1.3,0.2-2.7,0.2-4,0.2c-3.3,0-6.6,0-10,0c-1.4,0-2.8,0.3-4,1c-3.1,1.8-4.6,4.6-4.6,8.3
		c0.1,5.1,0,10.2,0,15.2c0,0.6-0.2,1.2-0.1,1.8c0.2,1.3,0,2.6,0.1,3.9c0,0.5-0.1,0.9-0.4,1.2c0,0,0,0.1,0,0c0,0.4,0.3,0.3,0.4,0.5
		c0,2.1,0,4.3,0,6.5c-1.2,0.6-0.1,1.4-0.3,2c0.2,0.4,0.7,0.1,0.9,0.6c-0.3,0.2-0.5,0.5-0.8,0.7c-0.4,0-0.8-0.2-1.2,0.1
		c0.3,0.4-0.3,0.5-0.3,1c0.2,0.3,0.8,0.4,0.8,0.9c-0.1,0.2-0.3,0.1-0.4,0.2c-0.2,0.1-0.3,0.2-0.4,0.4c0.1,0.1,0.2,0.2,0.3,0.4
		c0.1,0.2,0.1,0.4,0.1,0.6C25.2,72.7,25.2,72.7,25.1,73.6z M57.9,23.9c-0.1-0.7-0.5-0.5-1-0.4c0.2,0.3,0.5,0.5,0.8,0.5
		c0,0.5-0.8,0.5-0.6,1c0.2,0.1,0.4,0.2,0.6,0.3c-0.3,0.2-0.5,0.4-0.6,0.7c0.5,0.4,0.5,0.4,1.1-0.1c-0.1-0.2-0.2-0.3-0.3-0.5
		C58.2,24.9,58.4,24.4,57.9,23.9z M51.8,24.9c0.1-0.3,0.3-0.5,0.3-0.8c-0.4-0.2-0.5-0.7-0.9-1c-0.1,0.2-0.5,0.1-0.6,0.3
		c0,0.5,0.2,0.4,0.4,0.5c-0.5,0.3-0.4,0.8-0.4,1.4C51,24.8,51.4,24.9,51.8,24.9z M73.2,67.8c0.5,0.6,1,1.2,1.6,1.8
		c0.4-0.7,0.5-0.7,0.2-1.1c-0.4-0.4-0.9-0.7-1.2-1.1C73.4,67.4,73.3,67.6,73.2,67.8z M70.2,27.6c0.7,0.7,1.2,0,1.7,0.1
		c0.4-0.8-0.3-1.1-0.5-1.6c-0.3,0.4-0.1,0.8-0.3,1.2C70.9,27.4,70.6,27.5,70.2,27.6z M24.6,55.1c-0.4,0.5-0.7,0.9-1,1.4
		c0.3,0.6,0.7,0.2,1.3,0.2c-0.4-0.6,0.1-0.9,0.4-1.3C25,55.4,24.8,55.3,24.6,55.1z M75.5,31.1c0.2-0.1,0.5-0.1,0.6-0.4
		c-0.1-0.3-0.1-0.5-0.4-0.8c-0.4,0-0.8-0.1-1.4,0.2C75,30.2,75,30.8,75.5,31.1z M43.7,26.1c-0.2-0.3-0.4-0.5-0.6-0.7
		c-0.5,0.1-0.8,0.3-0.8,0.9c0.3,0.1,0.6,0.2,0.9,0.3C43.5,26.5,43.6,26.4,43.7,26.1z M77.3,61.8c-0.3,0.4-0.6,0.7-1,1.2
		c0.6,0,1,0,1.3,0.2c0.1-0.2,0.3-0.4,0.3-0.6C77.8,62.4,77.6,62.1,77.3,61.8z M25.2,71.2c-0.4-0.5-0.8-0.5-1.2-0.1
		c-0.1,0.4,0,0.6,0.4,0.8C24.6,71.6,25.1,71.6,25.2,71.2z M68.9,26.1c-0.5-0.1-0.7,0.1-0.8,0.6c0.6,0.5,1,0.5,1.2,0
		C69.2,26.5,69.2,26.2,68.9,26.1z M66.8,74.7c0.1,0.4-0.1,0.8,0.4,1c0.2-0.6,0.7-1,0.6-1.7C67.3,74.1,67.3,74.6,66.8,74.7z
		 M26.6,56.9c-0.2-0.3-0.1-0.6-0.2-0.9c0-0.4-0.2-0.7-0.6-0.7c-0.1,0-0.2,0-0.3,0.1c0.1,0.3,0.5,0.3,0.5,0.6c-0.1,0.3-0.4,0.6,0,0.9
		C26.2,57.1,26.3,57.1,26.6,56.9z M76.9,54.9c-0.2,0-0.2,0.5-0.6,0.3c-0.2-0.1-0.4-0.2-0.5,0.2c0.2,0.4,0.9,0,1.2,0.7
		c0-0.4,0.4-0.4,0.5-0.7C77.2,55.4,77.1,55.1,76.9,54.9z M78.3,51.9c-0.3-0.2-0.4-0.7-1.1-0.6c0.4,0.4,0.1,0.9,0.4,1.3
		C77.9,52.6,78.1,52.4,78.3,51.9z M66.3,27.1c0.9-0.6,0.9-0.7,0.5-1.5C66.9,26.1,66.1,26.4,66.3,27.1z M38.7,73.4
		c0,0.9,0.1,0.9,0.9,0.7C39.4,73.7,39.4,73.2,38.7,73.4z M23.5,51.6c-0.4-0.2-0.7-0.6-1.1-0.3c0.1,0.2,0.1,0.5,0.3,0.6
		C23,52.1,23.3,52,23.5,51.6z M75.4,33.7c0.4,0.2,0.7,0.1,0.9-0.3c-0.1-0.2-0.2-0.4-0.5-0.4C75.5,33.2,75.3,33.3,75.4,33.7z
		 M77.3,50.7c0.2,0.3,0.3,0.4,0.6,0.3c0.1-0.2,0.2-0.4,0.3-0.6c-0.2-0.2-0.3-0.4-0.6-0.2C77.5,50.3,77.4,50.5,77.3,50.7z M23,45.9
		c-0.3-0.5-0.6-0.3-1-0.3c0,0.3-0.2,0.6,0.2,0.8C22.5,46.3,22.7,46.1,23,45.9z M29.7,72.3c-0.4,0.3-0.9,0.7-0.6,1.3
		C29.7,73.3,29.6,72.8,29.7,72.3z M33.4,73.6c-0.3,0-0.6,0.2-0.8,0.4c0.3,0.5,0.6,0.2,0.9,0.2C33.6,73.9,33.6,73.7,33.4,73.6z
		 M71.4,24.2c-0.8,0.1-0.8,0.1-0.4,0.7C71.3,24.8,71.4,24.5,71.4,24.2z M23.4,33.7c0.3,0.5,0.7,0.4,1,0.3c0.2-0.1,0.1-0.3,0-0.4
		C24.1,33.4,23.8,33.6,23.4,33.7z M26.1,61.3c0.3,0.5,0.5,0.9,0.7,1.3C27,61.9,26.9,61.5,26.1,61.3z M70.1,75.2
		c-0.4,0.4-0.4,0.7-0.3,1.1C70.1,76,70.5,75.8,70.1,75.2z M73.8,68.8c-0.4,0-0.5,0.2-0.6,0.3c0,0.2,0.1,0.4,0.3,0.6c0,0,0.1,0,0.3,0
		C73.8,69.5,73.8,69.2,73.8,68.8z M23.9,57.9c-0.1-0.3-0.2-0.5-0.6-0.6c-0.1,0.2-0.2,0.4,0,0.6C23.6,58.1,23.7,58.1,23.9,57.9z
		 M25.9,63c-0.3-0.5-0.6-0.5-0.9,0C25.3,63.2,25.6,63.1,25.9,63z M22.1,63.9c0.2,0.4,0.4,0.6,0.7,0.3c0.1-0.1,0.1-0.2,0.1-0.3
		C22.7,63.7,22.4,63.7,22.1,63.9z"/>
	<path class="st0" d="M44.2,32.4c1.1-0.9,2.4-1,3.8-1c0.2,0.5-0.6,0.4-0.4,0.9c0.3,0.2,0.6-0.1,0.9,0c0.4-0.3,0.2-0.7,0.4-0.9
		c0.1,0,0.2-0.1,0.3-0.1c1.1-0.1,2.2,0,3.2,0.4c0.2,0.1,0.5,0,0.7,0c1.1,0,2.1,0.2,3,0.8c-0.6,0.7-0.6,0.7-0.4,1.7
		c0.3-0.3,0.7-0.5,1-0.8c0.2,0,0.2,0.3,0.3,0.4c0.4,0.2,0.3-0.8,0.8-0.3c-0.3,0.4-0.6,0.8-0.9,1.3c0.3,0.3,0.3,0.8,0.7,0.9
		c0.5,0,1.1,0.1,1.6-0.3c0.3-0.3,0.6-0.5,1-0.6c0-0.3-0.3-0.2-0.3-0.4c0.1,0,0.1-0.1,0.2-0.1c0.7,0.3,1.2,0.7,1.3,1.6
		c-0.2,0.1-0.3,0.2-0.5,0.2c-0.1,0.3,0.3,0.2,0.2,0.5c-0.3,0.2-0.7,0.2-1,0.5c-0.2,0.7,1.1,0.5,0.8,1.3c-0.3,0.2-0.3,0.5-0.4,0.8
		c0.5,0.2,0.7,0,0.8-0.4c0.2,0,0.4,0,0.6-0.1c0.4-0.4-0.6-0.9,0-1.3c-0.3-0.5-0.1-1.1-0.2-1.7c0.5,0.2,0.9,0.5,1,0.9
		c0.2,0.5,0.7,0.3,0.9,0.9c0,0.3-0.7,0.2-0.8,0.7c0.9,0.3,0.9,1.3,1.3,2.1c-0.5,0.5-1.3-0.2-1.9,0.3c0.3,0.3,0.7,0,1.1,0.4
		c0.3,0.5-0.7,1.4,0.4,1.8c0.2-0.1,0.4-0.2,0.6-0.3c0.1-0.2,0.1-0.4,0-0.6l0,0c0.2,0.1,0.4,0.1,0.6,0c0.6-0.6,0-1.5,0.6-2.2
		c0.5,0.6,0.9,1.3,1.3,2.1c-0.4,0.4-0.8,0.9-0.5,1.5c-0.2,0.4-0.7,0.3-0.7,0.8c0.3,0.2,0.6,0.4,0.7,0.8c0.6-0.5,0.6-1.3,0.8-2
		c1.1,2.4,1.5,4.9,1.5,7.4c-0.1,0.4-0.5,0-0.6,0.3c0.3,0.7,0.8,1.3,0.4,2.2c-0.1,0.1-0.4,0-0.4,0.4c0.5,0.6,0,1.3-0.2,2
		c-0.3,1.5-0.9,2.9-1.7,4.2c-0.2,0.3-0.3,0.7-0.7,0.9c-0.3-0.2-0.4-0.6-0.6-0.8c-0.3-0.2-0.7-0.1-1.1,0c0.2,0.6,0.3,1.1,0.2,1.5
		c0.3,0.2,0.5,0.3,0.8,0.5c-0.5,0.6-0.9,1.1-1.4,1.6c-0.3,0.3-0.6,0.8-1.2,0.5c-0.2,0.7-0.4,1.4-1.3,1.2c-0.3-0.1,0,0.5-0.4,0.4
		c-0.1-0.3,0.1-0.6-0.2-0.8c-0.2,0.2-0.4,0.4-0.4,0.7c0.1,0.2,0.3,0.2,0.4,0.2c-0.2,0.5-0.6,0.6-1,0.7c-0.4-0.1-0.3-0.6-0.5-0.8
		c-0.5-0.2-0.8,0.1-1.1,0.3c-0.3,0.5,0.2,0.8,0.1,1.3c-4.4,2.2-9.1,2.3-13.9,0.9c0.3-0.5,0.3-0.5,0.4-1.2c0.3-0.3,0.6-0.5,1-0.8
		c-0.3-0.4-0.5-0.6-0.7-0.9c-0.3,0.5-0.5,1-0.4,1.6c-0.2,0-0.5,0-0.7-0.1c-0.5-0.3-1.1-0.4-1.7-0.3c-0.1-0.1-0.3-0.1-0.4-0.2
		c0.2-0.5,0.9-0.1,1.1-0.6c0-0.2-0.2-0.2-0.4-0.2c-0.2,0-0.3-0.1-0.4-0.3c0.1-0.4,0.6-0.2,0.7-0.5c0-0.1-0.1-0.2-0.1-0.3
		c0.4-1,0.1-1.6-0.7-1.6c0.2,0.5,0.7,0.9,0.6,1.5c-0.4,0.3-1.1,0.3-1.1,0.9c-0.6,0-0.8-0.5-1.1-0.8c-0.3,0.1-0.7,0.1-1,0.2
		c-0.2,0.2-0.2,0.5-0.1,0.7l0,0c-1-0.6-1-0.6-0.5-2.2c-0.6,0.2-1.1,0.4-1.2,1c-0.9-0.6-1-0.7-0.7-1.5c0.3-0.9,0.1-1.6-0.8-2.4
		c-0.4,0.4,0.3,0.9-0.1,1.3c-1.3-0.5-1.3-0.4-1.9-1.5c-2.6-4.6-3.4-9.4-1.9-14.6c1.5-5.4,4.9-9.4,9.9-11.9c0.4-0.2,0.8-0.5,1.3-0.4
		c0.2,0.4-0.2,0.9,0.2,1.3c0.2,0.1,0.4,0.1,0.6-0.1C43.9,33.4,44,32.9,44.2,32.4z M34.2,56c-0.7,0-0.9,0.1-0.8,1
		c0.4-0.2,0.7-0.5,0.9-0.8c0.2-0.4,0.7-0.8,0-1.2C34.2,55.3,34.3,55.7,34.2,56z M47.4,36c0.2,0.4,0.6,0.5,0.9,0.6
		c0.5-0.2,0.9-0.4,1.2-0.9c-0.2-0.1-0.4-0.4-0.6-0.2c-0.4,0.5-0.9,0.2-1.4,0.3c0.2-0.2,0.4-0.4,0.6-0.5c-0.3-0.4,0-0.9-0.3-1.2
		c-0.2-0.2-0.4-0.1-0.7,0C47.2,34.7,47,35.4,47.4,36z M55.5,66.5c0.3-0.1,0.6,0.1,0.9-0.2c0.1-0.5,0.1-1.1-0.4-1.5
		c-0.3,0.1-0.6,0.2-0.8,0.6c0.2,0.3,0.1,0.6,0.2,1c-0.3-0.2-0.6-0.1-0.9,0c-0.1,0.3,0.1,0.5,0.4,0.6C55,66.7,55.3,66.8,55.5,66.5z
		 M60.9,62c-0.4,0.1-0.5-0.5-0.8-0.6c0,0.5-0.7,0.7-0.5,1.3c0.4,0.2,0.9,0.4,1,1c0.4-0.2,0.5-0.5,0.4-0.8c-0.1-0.3-0.5-0.1-0.6-0.4
		c0.1-0.3,0.5-0.1,0.7-0.4c0.2-0.4,0.6-0.8,0.1-1.2c-0.3,0.2-0.5,0.4-0.7,0.5C60.6,61.7,60.7,61.9,60.9,62z M50.5,34.7
		c0.2-0.8,0.7-1.5,0-2.3c-0.6,0.1-0.9,0.4-0.7,0.7c0.1,0.1,0.4,0,0.5,0.3c-0.2,0.3-0.5,0-0.8,0.4c0.5,0.2,0.5,0.8,0.8,1.1
		c0.3,0.4-0.1,0.7-0.1,1c0.1,0.3,0.4,0.3,0.6,0.5c-0.5,0.1-1,0.1-1.3,0.4c-0.5,0.4-1,0.5-1.5,0.1c-1,0.7-1.4,0.8-1.4,0.6
		c0-0.2,0.4-0.2,0.4-0.5c-0.4-0.1-0.7-0.1-1.1,0c-0.5,0.2-0.1,0.7-0.3,1c-0.4,0.2-0.8,0.4-1.3,0.2c-1,1.2-2.5,1.7-3.4,2.9
		c-0.3-0.3-0.6-0.3-0.8-0.1c-0.3,0.3-0.7,0.7-0.7,1.2c0.1,0.7-0.3,1.2-0.6,1.7c-1.8,3.3-1.8,6.7-1.1,10.2c0.9,1,0.9,2.4,1.9,3.3
		c0.5,0.5,0.5,1.4,1.3,1.7c0.1,0,0.1,0.4,0.2,0.6c0.5-0.2,0.8,0.1,1.1,0.4c1.6,1.3,3.4,2.2,5.4,2.5c2.6,0.4,5.2,0.3,7.6-0.9
		c0.6-0.3,1.1-0.6,1.8-0.2c0.2-1.3,1.4-1.6,2-2.3c0.5-0.2,0.7,0.3,1,0c0.2-0.3-0.1-0.4-0.1-0.6c0.1-0.4,0.7-0.5,0.7-1
		c0.1-0.7,0.5-1.2,0.8-1.8c0.7-1.5,1.4-3.1,1.3-4.8c0-0.6,0.3-0.9,0.8-1.3c-0.5-0.6-0.4-1.3-0.3-1.7c-0.2-0.5-0.5-0.1-0.7-0.5
		c-0.3-1.3-0.8-2.7-1.5-3.9c-0.2-0.3,0-0.5,0.1-0.8c-0.6-0.1-0.9-0.4-1.1-1c-0.2-0.5-0.9-0.6-1.1-1.1c0.3-0.6,0.5-1.3,1.2-1.5
		c0-0.8-0.7-1-1-1.5c0.2-0.6-0.3-0.9-0.3-1.5c-0.3,0.2-0.6,0.4-0.6,0.6c0.1,0.2,0.3,0.4,0.2,0.4c0.2,0.8-0.5,0.6-0.6,1.1
		c-0.1,0.4,0.5,0.5,0.7,0.8c-0.1,0.2-0.3,0.2-0.3,0.4c0.1,0.4,0.6,0.5,0.6,1c-1-0.7-2-1.3-2.9-2c-0.4-0.3-1-0.3-1.3-0.7
		c-1.2,0.1-2.3-0.5-3.5-0.6c0.2-0.3,0-0.5-0.1-0.6c0.5,0,0.9,0,1.4,0.1c0-0.5-0.7-0.9,0-1.3c-0.5-0.2-0.7-0.5-1-0.9
		C51.1,34.7,50.7,34.4,50.5,34.7z M63.4,55.5c-0.1,0.2-0.2,0.4-0.3,0.6c0.2,0.3,0.2,0.7,0.5,1c0.7-0.2,0.8-0.9,1.3-1.2
		c0-0.4,0.1-0.8-0.1-1.2c-0.7-0.2-1.4-0.2-2.1,0.1C62.6,55.3,63.2,55.1,63.4,55.5z M65,52.3c-0.3-0.2-0.8-0.1-0.8-0.7
		c0.1,0,0.2,0,0.4,0c0.1,0,0.3,0.2,0.5,0c0-0.1,0.1-0.3,0.2-0.5c-1.1-0.2-1.1-0.2-2.2,0.3c0.3,0.8,0.1,1.8,1.1,2.2
		C64.8,53.4,64.8,52.9,65,52.3z M62.3,59.8c0.7-0.4,0.7-1.3,1.3-1.7c-0.3-0.2-0.5-0.4-0.8-0.2c-0.4,0.2-0.9,0.3-0.9,0.9
		C62,59.1,62.1,59.4,62.3,59.8z M45.1,35.7c-0.4,0-0.7,0-0.9,0c-0.2-0.4-0.2-0.4-0.7-0.4c0,0.3-0.2,0.7,0,1.1
		c0.4,0.1,0.8,0.2,1.3,0.3C45,36.4,45,36.1,45.1,35.7z M39.4,39.8c0.5-0.8,0.8-1.5,0.5-2.4C39.2,37.8,39.1,38.1,39.4,39.8z
		 M33.7,54.2c0.5,0.1,0.4-0.3,0.6-0.5c0.2-0.2,0.5-0.4,0.7-0.6c-0.1-0.2-0.2-0.4-0.5-0.4c-0.3,0-0.2,0.4-0.6,0.5
		c-0.1,0-0.5-0.3-0.7,0.1C33.3,53.6,33.5,53.9,33.7,54.2z M63.1,43.7c-0.3-0.3-0.7-0.6-0.8-1c-0.4,0.2-0.5,0.5-0.4,0.7
		c0.2,0.4,0.2,0.9,0.8,0.9C62.8,44.1,62.9,43.9,63.1,43.7z M38.1,42.7c-0.3-0.1-0.6-0.1-0.9,0.1c0.3,0.5,0.1,1.1,0.3,1.7
		C38.5,44.1,37.6,43.3,38.1,42.7z M64.8,49.3c0.4,0.2,0.6-0.1,0.9-0.4c0-0.4,0.2-0.9-0.4-1.4c0,0.4-0.1,0.7-0.5,0.9
		C64.8,48.5,65,49,64.8,49.3z M39.5,63.2c0.7-0.6,0.5-1.1,0.3-1.6c-0.3-0.1-0.5-0.1-0.6,0.2C39.2,62.2,39.3,62.6,39.5,63.2z
		 M47.2,66.6c-0.1-0.9-0.1-0.9-0.9-0.7c0,0.4,0.1,0.8,0.1,1.3C46.7,67,46.9,66.8,47.2,66.6z M41.3,35.1c-0.3-0.3-0.4-0.5-0.8-0.6
		c-0.2,0.5-0.3,1-0.2,1.6C40.9,36,40.9,35.4,41.3,35.1z M57.6,63.2c-0.3-0.3,0-0.9-0.7-1.1c-0.2,0.3-0.4,0.7-0.2,1.1
		C57,63.4,57.2,63.4,57.6,63.2z M31.9,47.6c0.3,0.1,0.6,0.2,1,0.2c0.1-0.3,0.1-0.5,0.2-0.8c-0.2-0.2-0.4-0.3-0.6-0.3
		C32.3,47.1,32.1,47.3,31.9,47.6z M40.5,40.4C40.3,40,40,39.9,39.7,40c-0.2,0.1-0.5,0.3-0.2,0.7C39.8,40.7,40.2,40.6,40.5,40.4z
		 M34.3,52c0-0.4-0.1-0.5-0.3-0.6c-0.2,0.1-0.5,0.2-0.8,0.3C33.4,52.2,33.8,52.1,34.3,52z M37.7,58c0.4,1,0.6,1.1,1.2,0.6
		c-0.3-0.2-0.6-0.4-0.8-0.6C38,58,37.9,58,37.7,58z M44.9,63.2c-0.7-0.7-0.9-0.6-1.4,0.2C43.9,63.4,44.4,63.4,44.9,63.2z M40.3,60.6
		c0.1,0.4,0.2,0.6,0.6,0.6c0.2-0.2,0.3-0.4,0.3-0.7C40.8,60.3,40.6,60.3,40.3,60.6z M38.6,59.8c-0.7-0.6-0.7-0.6-1.1-0.2
		C37.8,59.8,38.1,60.1,38.6,59.8z M54.7,63.3c-0.2-0.2-0.2-0.7-0.8-0.6c0.1,0.4,0.3,0.7,0.4,1C54.5,63.6,54.6,63.5,54.7,63.3z
		 M45.5,32.9c-0.4,0.1-0.5,0.5-0.5,0.8c0.2,0.2,0.4,0.1,0.6,0C45.3,33.5,45.8,33.2,45.5,32.9z M37.7,38.8c0,0.3-0.1,0.4-0.1,0.6
		c0,0.2,0.1,0.4,0.4,0.4C38.3,39.4,38.2,39.1,37.7,38.8z M60.6,40.7c-0.2-0.2-0.1-0.6-0.4-0.7c-0.3,0-0.4,0.2-0.5,0.4
		C60,40.7,60.2,40.9,60.6,40.7z M37.4,57c0.6,0.4,0.9,0.4,1.4,0.2C38.4,56.8,38.1,56.8,37.4,57z M40.8,37.2c0.3-0.2,0.6-0.4,0.3-0.8
		C40.7,36.5,40.4,36.6,40.8,37.2z M38.6,42.1c-0.3-0.6-0.6-0.3-1.1-0.3C37.9,42.4,38.2,42.2,38.6,42.1z M63.6,45.3
		c-0.2-0.5-0.5-0.6-1.1-0.6C62.8,45.1,63.1,45.3,63.6,45.3z M34.2,45.5c-0.2,0.4-0.5,0.6-0.1,0.9c0.1,0.1,0.2,0.1,0.3,0
		C34.7,46.1,34.4,45.9,34.2,45.5z M62.8,60.8c-0.5-0.4-0.5-0.4-0.8,0.1C62.3,60.9,62.5,61,62.8,60.8z M43.8,61.6
		c-0.3,0.3-0.5,0.6-0.6,1C43.9,62.5,44,62.2,43.8,61.6z"/>
	<path class="st0" d="M66.3,31.5c-0.3,0-0.4-0.2-0.6-0.4c0.1-0.2,0.2-0.5,0.3-0.7c-0.1-0.1-0.2-0.2-0.3-0.3c0.1-0.3,0.2-0.6,0.3-0.9
		c0.1,0,0.2-0.1,0.4-0.1c0.3,0,0.5,0.1,0.9-0.1c0.7-0.4,2.5,0.4,2.9,1.2c0.1,0.2,0.5,0.3,0.4,0.6c-0.1,0.1-0.2,0.1-0.3,0.2
		c0.1,0.3,0.1,0.5,0.2,0.8c0.2,0.3,0.6,0.1,0.7,0.3c0.7,0.9-0.4,3.3-1.9,4.2c-0.2,0-0.3-0.4-0.6-0.3c-0.3,0.1,0.1,0.4-0.2,0.6
		c-0.9,0.3-1.9,0.2-2.8-0.2c-0.9-0.4-1.4-1.2-1.9-2c-0.9-1.5-0.3-3.5,1.2-4.7c0.2,0.7-0.1,1.4,0.3,1.8c-0.4,0.7-1-0.3-1.2,0.1
		c-0.3,0.6,0.1,0.7,0.2,1c-0.1,0.1-0.2,0.3-0.3,0.4c0.1,0.5,0.7,0.2,0.8,0.6c0.4-0.4,0.4-0.9,0.6-1.2c0.3-0.3,0.7-0.2,1-0.3
		c0.4,0.5-0.5,0.5-0.3,0.9c0.1,0.4,0.5,0.4,0.7,0.6c0.4,0,0.6-0.4,0.9-0.5c0-0.4-0.3-0.8,0.3-1.1c-0.5-0.2-0.8-0.4-1.1-0.5
		c0.2-0.5,0.2-0.9-0.1-1.3C66.2,30.5,66.6,31,66.3,31.5z M68.3,35.7c0.6-0.2,1.1-0.1,1.3-0.7c-0.1-0.3-0.2-0.5-0.6-0.5
		C68.6,34.7,68.4,35.1,68.3,35.7z"/>
	<path class="st0" d="M58.1,33.3c0.3,0,0.6,0,0.8,0.1c0.4,0.4-0.4,0.8,0,1.2c-0.2,0.1-0.5,0-0.7,0.3C58.1,34.3,58.1,33.8,58.1,33.3z
		"/>
	<path class="st0" d="M39.1,64.7c0.3,0.2,0.5-0.2,0.8-0.1c0.3,0.3-0.1,0.8,0.5,1.1C39.7,65.6,39.2,65.4,39.1,64.7L39.1,64.7z"/>
	<path class="st0" d="M41.5,65.7c0.1,0.1,0.3,0.1,0.4,0.2c0,0.2,0,0.4-0.1,0.6c-0.4-0.2-0.7-0.1-1-0.4C41,65.8,41.2,65.8,41.5,65.7z
		"/>
	<path class="st0" d="M64.3,38c0.3,0.1,0.4,0.3,0.5,0.6c-0.1,0.2-0.3,0.2-0.5,0.3C64.1,38.6,64.1,38.4,64.3,38z"/>
	<path class="st0" d="M53.7,26.8c0.1-0.2,0.1-0.4,0.2-0.5c0.2-0.1,0.4,0,0.4,0.1c0.2,0.2-0.1,0.3-0.1,0.5
		C54.1,26.9,53.9,26.9,53.7,26.8L53.7,26.8z"/>
	<path class="st0" d="M73.4,55.9c0.1,0.4-0.1,0.7-0.4,0.9C72.9,56.3,72.9,56,73.4,55.9L73.4,55.9z"/>
	<path class="st0" d="M64.3,41.7c-0.3-0.3-0.1-0.5-0.1-0.9C64.7,41.1,64.2,41.4,64.3,41.7L64.3,41.7z"/>
</g>
</svg>
