<?xml version="1.0" encoding="utf-8"?>
<!-- Generator: Adobe Illustrator 21.0.0, SVG Export Plug-In . SVG Version: 6.00 Build 0)  -->
<svg version="1.1" id="Capa_1" xmlns="http://www.w3.org/2000/svg" xmlns:xlink="http://www.w3.org/1999/xlink" x="0px" y="0px"
	 viewBox="0 0 100 100" style="enable-background:new 0 0 100 100;" xml:space="preserve">
<style type="text/css">
	.st0{fill:#FFFFFF;}
	.st1{fill:#2C2A2A;}
</style>
<g>
	<path class="st0" d="M94.6,34.3c0.1,0.4,0.4,0.7,0.3,1.1c-0.2,0.5,0.7,0.7,0.5,1.3c-0.2,0.2-0.7,0-0.9,0.4
		c-0.3,0.9,0.8,1.6,0.5,2.5c0.3,0.2,0.6,0.6,1,0.2c-0.1,0.5-0.5,0.8-0.5,1.2c0.2,0.5,0.7,0.5,1.1,0.8c0.3,0.4,0.3,0.9,0.4,1.5
		c0.5,3,0.5,6,0.5,9c0,2.4-0.3,4.9-0.8,7.2c-0.4,1.6-0.7,3.3-1.2,4.9c-0.6,1.7-1.2,3.4-1.9,5c-0.7,1.6-1.5,3.2-2.4,4.7
		c-0.9,1.5-1.9,3-2.9,4.4c-0.5,0.6-0.9,1.2-1.5,1.7c-0.2,0.2-0.4,0.5-0.6,0.8c-0.4,0.7-0.9,1.5-1.8,1.7C84,82.8,84,83,83.9,83.1
		c-0.3,0.7-0.8,1.2-1.4,1.6c-4.7,4.3-9.9,7.7-15.9,9.8c-1,0.4-2,0.7-3,1c-0.4,0.1-0.9,0.4-1.4,0.1c-0.1,0-0.3,0-0.3,0
		c-1,0.9-2.4,0.8-3.6,1.1c-1.4,0.3-2.8,0.4-4.2,0.5c-0.4,0-0.7,0.1-0.9-0.4c-0.4,0.3-0.8,0.5-1.2,0.5c-1.5,0-3,0.1-4.4-0.1
		c-1-0.2-2,0-3-0.2c-1.1-0.2-2.3-0.1-3.3-0.8c-0.7,0.2-1.4-0.1-2.1-0.2c-0.5-0.1-1-0.3-1-1c-0.9,0.1-1.7,0.8-2.4-0.4
		c-0.4,0.3-0.8,0.2-1.2,0c-1.4-0.6-2.7-1.1-4.1-1.7c-0.9-0.4-1.6-1-1.8-2c0.1-0.1,0.4,0.1,0.5-0.2c0-0.2-0.2-0.3-0.4-0.5
		c0.4-0.7,0.2-1.5,0.1-2.2c-0.3-0.1-0.4-0.2-0.7,0c-0.1,0.3-0.1,0.7-0.2,1c0.2,0.1,0.4,0.2,0.4,0.4c-0.5,0.6-1.2,1-1.9,1.2
		c-1.6-0.9-3.2-2-4.5-3.1c-0.3-0.5,0.1-0.7,0-1c-0.2-0.3-0.4,0-0.5-0.1c-0.1-0.2-0.2-0.3-0.2-0.5c-0.3,0-0.2,0.4-0.4,0.5
		c-0.1,0-0.2,0-0.2,0c-2.8-2.1-5.1-4.7-7.3-7.4c-0.3-0.4-0.4-1-0.8-1.3c0.7-0.5,0.7-0.5,0.4-1c-0.3,0.2-0.5,0.4-0.8,0.6
		c-0.6-0.8-1.3-1.6-1.6-2.6c-0.2-0.4-0.6-0.7-0.8-1.1c-3-5.2-4.9-10.7-5.8-16.6c-0.7-4.5-0.7-9,0-13.5c0.3-1.7,0.6-3.5,1-5.1
		c0.2-0.6,0.3-1.1,0.9-1.3c0.2-0.4-0.2-0.3-0.2-0.5c-0.1-0.7,0.6-1.1,0.6-1.9c0-0.7,0.4-1.4,0.7-2.1c0.3-0.7,0.6-1.4,0.9-2.1
		c0.3-0.7,0.7-1.4,1.1-2.1c0.4-0.7,0.7-1.3,1.1-2c0.4-0.7,0.8-1.3,1.2-1.9c0.4-0.6,0.9-1.2,1.3-1.9c0.4,0,0.7,0.6,1.1-0.1
		c0.1-0.4,0.4-0.8,0-1.4c1.3-1.7,2.9-3.4,4.5-4.9c0.6,0.3-0.1,0.5,0.4,0.8c0.2,0.1,0.7,0.1,1.1-0.2c0.2-0.3-0.3-0.2-0.3-0.5
		c0.1-0.2,0.5-0.2,0.6-0.6c-0.1-0.1-0.1-0.3-0.2-0.5c-0.4,0.1-0.5,0.5-1.1,0.5c0.6-0.5,1.2-1,1.8-1.5c3.1-2.6,6.6-4.8,10.3-6.5
		c0.4-0.2,0.7-0.4,1.2-0.3c0.4,0.1,0.5-0.5,0.9-0.4c0.4-0.7,1.1-0.7,1.8-0.7c0.3-0.3,0.6-0.6,1-0.7c1.4-0.4,2.8-0.8,4.1-1.2
		c0.7-0.2,1.3-0.2,1.9,0.3c0.2,0.2,0.3,0,0.4,0c0.2,0.3-0.5,0.5-0.1,0.8c0.4,0.2,0.5-0.2,0.8-0.2c0.1-0.5,0.2-0.9-0.2-1.3
		c0.7-0.4,1.5-0.2,2.2-0.4c0.2,0,0.3,0.1,0.3,0.2c0,0.1,0.1,0.2,0.2,0.2c0.2-0.5,0.6-0.4,1-0.5c0,0.2-0.1,0.4-0.1,0.5
		c-0.4,0.5-0.2,0.9-0.1,1.4c0.4,0,0.5-0.3,0.7-0.5c-0.2-0.2-0.5-0.4-0.4-0.8c0.5-0.3,0.7-0.9,1.4-1c1.7,0,3.4,0,5,0
		c0.4,0.3,0.8,0.2,1.3,0.3c3.5,0.2,7,0.9,10.3,2C65.8,6,67,6.2,68.1,6.8c1.2,0.6,2.3,1.1,3.5,1.6c1.3,0.6,2.4,1.3,3.1,2.6
		c0.3-0.1,0.5-0.2,0.8-0.3c0.6,0.1,0.8,0.8,1.5,1c0.3,0.1,0.3,0.4-0.2,1c0.2,0.3,0.9,0.4,0.7,0.9c0.3,0.2,0.6,0.2,0.9,0.1
		c-0.1-0.4-0.7-0.5-0.3-1c0.1,0,0.2-0.1,0.2,0c1,1,2.2,1.6,3.2,2.6c0.5,0.5,1,1,1.2,1.7c1.1,0,1.4,1,2.1,1.5c0,0.5-0.4,1.1,0.2,1.5
		c0.3,0,0.2-0.4,0.6-0.5c0.3,0,0.4,0.3,0.6,0.6c1.9,2.2,3.6,4.6,5.1,7.1c0.4,0.6,0.4,1.3,0.3,2c-0.1,0.4-0.1,0.7,0.2,1
		c0.3,0.2,0.6-0.1,1,0c0.3,0.5,0.6,1,0.7,1.6c-0.1,0.1-0.2,0.1-0.3,0.2c-0.3,0-0.1-0.4-0.3-0.4c-0.3,0.1-0.2,0.4-0.3,0.5
		c0.1,0.3,0.4,0.4,0.6,0.5c-0.4,0.2-0.7,0.4-1.1,0.6c0.3,1.5,0.4,1.5,1.2,1.5c0.1-0.4-0.3-0.6-0.3-1c0.1-0.3,0.2-0.7,0.4-1
		c0.2,0,0.4-0.1,0.6-0.1c0.4,0.6,0.2,1.4,0.7,1.9c-0.2,0.1-0.5,0.1-0.7,0.2c-0.1,0-0.1,0.2-0.1,0.3c0.3,0.1,0.5,0.1,0.9,0.2
		C94.6,34.7,94.6,34.5,94.6,34.3z M61.1,89.8L61.1,89.8c0.1,0.1,0.1,0.3,0.4,0.5c0.1,0.1,0.3-0.1,0.4-0.1c0.2,0.1,0.4,0.1,0.5-0.1
		c-0.3-0.5-0.3-0.5-0.9-0.7c-0.2-0.6-0.3-0.6-0.8,0c-0.4,0.5,0,0.9,0.2,1.4c-0.2,0.2-0.5,0-0.6,0.3c-0.3,0.7,0.6,0.5,0.7,0.8
		c0.4,0,0.2-0.4,0.4-0.5c0.4,0,0.7,0.2,1-0.2c-0.5-0.9-0.5-0.9-1.4-0.6C61.1,90.3,61.1,90,61.1,89.8z M27.2,76.7
		c-0.1-0.7-0.6-0.4-1-0.4c-0.2,0.3-0.2,0.6,0.1,1c0.1-0.4,0.4-0.5,0.8-0.4c0.2,0.2,0.3,0.5,0.7,0.4c0.2-0.4,0.2-0.7,0-1.1
		C27.4,76.1,27.4,76.5,27.2,76.7z M96.1,42.8c0.2-0.3,0.3-0.5,0-0.9c-0.1,0.3-0.7,0.3-0.6,0.7c0.1,0.2,0.3,0.2,0.4,0.3
		c-0.2,0.2-0.5,0.2-0.6,0.6c0.3,0.2,0.6,0.3,0.9,0.3C96.5,43.3,96.5,43.3,96.1,42.8z M38.7,24.3c-0.1-0.3,0.4-0.7-0.2-0.9
		c-0.2,0.2-0.4,0.4-0.5,0.6c0.2,0.3,0.4,0.4,0.6,0.4c0,0.3,0,0.7,0.1,1c0,0.1,0.2,0.3,0.3,0.3c0.1-0.4,0.7-0.3,0.6-0.8
		C39.3,24.8,38.9,24.7,38.7,24.3z M79.3,22.1c0.7-0.4,0.4-1.1,0.6-1.7c-0.4,0-0.6,0.1-0.6,0.5c0,0.4-0.1,0.8-0.1,1.1
		c-0.1,0.1-0.2,0.2-0.1,0.5c0.3,0.1,0.6,0.2,0.9,0.3C80,22,79.4,22.3,79.3,22.1z M69.2,14.2c0.3-0.3,0.7-0.5,0.9-0.9
		c-0.1-0.2-0.3-0.4-0.5-0.4c-0.5,0.2-0.4,0.7-0.4,1.1c-0.2,0-0.4,0-0.7,0.1c0.3,0.3,0.1,0.7,0.4,0.9c0.2-0.1,0.4-0.2,0.5-0.3
		C69.3,14.5,68.9,14.4,69.2,14.2z M52.2,94.8c0.3,0.4,0.6,0.5,1.1,0.3c0.1-0.4-0.1-0.8,0-1.2c0.1-0.3-0.2-0.4-0.4-0.4
		c-0.4-0.2-0.1-0.8-0.9-0.9C52.6,93.3,51.7,94.1,52.2,94.8z M61.4,93.5c-0.5,0.4-1.1,0.3-1.6,0.5c0.1,0.3,0.2,0.3,0.4,0.4
		c0.2,0,0.4,0.2,0.5,0.3c0.2,0.3-0.4,0.3-0.2,0.7c0,0,0.2,0.2,0.3,0.3c0.1,0,0.2,0.1,0.2,0c0.1-0.1,0.6-1.9,0.6-2
		c0.2-0.1,0.5,0,0.7-0.2c0.1-0.6-0.2-0.7-0.7-0.5C61.4,93.1,61.4,93.3,61.4,93.5z M39.3,8.9c0.4,0.3,0.2,0.8,0.4,1.1
		c0.6-0.4,0.1-0.9,0.2-1.4c0-0.3-0.6-0.3-0.4-0.6c0.3-0.6-0.1-0.8-0.6-1c0,0.8-0.4,1.4-0.5,2c0.2,0.3,0.3,0.5,0.7,0.4
		C39.1,9.1,39.2,9,39.3,8.9z M49.4,77.5c0,0.2,0,0.4,0,0.7c-0.2,0.3-0.4,0.2-0.6,0.1c-1.4-0.2-2.7-0.4-4.1-0.8
		c-0.3-0.1-0.2-0.6-0.7-0.6c-0.2-0.1,0,0.3-0.2,0.4c-0.1-0.4-0.7-0.3-0.7-0.8c-0.1,0.1-0.3,0.2-0.5,0.4c-0.8-0.2-1.7-0.4-1.8-1.5
		c0-0.2-0.2-0.2-0.4-0.2c0.6-0.3,0.5-0.8,0.3-1.4c-0.6,0.3-0.7,0.9-0.9,1.4c0.2,0.1,0.3,0.1,0.4,0.1c0,0.2,0.1,0.4-0.2,0.6
		c-0.6-0.1-1.1-0.4-1.5-0.6c-0.4-0.9-0.4-1.7-0.4-2.6c-0.4,0.2-0.7,0.3-0.7,0.8c0,0.4-0.2,0.9-0.3,1.3c-0.1,0.6-0.3,0.6-0.7,0.7
		c-0.3-0.2-0.3-0.7-0.8-0.6c-0.4,0.2-0.1,0.7-0.5,1c-0.8,0.2-1.7,0.9-2.8,0.3c-0.3,0.4-0.5,0.6-0.9,0.8c-1.5,0.6-3,1-4.5,1.5
		c-0.7,0.3-1.5,0.3-2.2,0.8c1.1,1.1,2.3,2.1,3.6,2.9c1.3,0.8,2.6,1.7,3.9,2.5c0,0-0.2,0.1-0.2,0.2c0,0.5-0.1,1-0.7,1.2
		c-0.2,0.1-0.2,0.4,0.1,0.5c0.8-0.2,1.2-1,1.5-1.7c1,0.6,2.1,0.8,2.8,1.6c0.1,0.1,0.3,0.3,0.5,0.2c0.4-0.2,0.7,0.1,1,0.2
		c0.9,0.3,1.8,0.5,2.6,0.9c0.8,0.4,1.7,0.4,2.6,0.6c1.9,0.5,3.9,0.4,5.7,1c1.4-0.4,2.9,0,4.4-0.2c1-0.1,2-0.3,3-0.1
		c0.9-0.7,2-0.4,2.9-0.7c1.1-0.3,2.1-0.6,3.1-0.9c0.4,0.1,0.4,0.5,0.7,0.6c0.5-0.3,0.5-1.1,1.2-1.2c0.6-0.1,1.2,0,1.8-0.3
		c0.2-0.2,0.4-0.7,0.8-0.8c1.2-0.4,2.3-1.1,3.4-1.7c0.4,0.2,0.8,0.4,1.4,0c0.2-1.3,1.4-1.8,2.4-2.4c0.4,0.1,0.7,0.4,1,0.3
		c0.5-0.4,0.2-0.9,0.3-1.4c1.5-1.3,3-2.6,4.4-4.1c1.4-1.5,2.7-3.1,3.8-4.8c0.2-0.3,0.5-0.5,0.9-0.4c0,0.4,0.2,0.4,0.5,0.4
		c0.4,0,0.5-0.2,0.5-0.6c-0.3,0-0.6,0.1-0.9,0.1c-0.4-0.4-0.2-0.8,0.1-1.2c0.9-1.5,1.7-3.1,2.4-4.7c0.4-0.9,0.7-1.7,1.3-2.4
		c0-0.3-0.1-0.4-0.1-0.6c0-0.2,0-0.4,0.1-0.6c0.8-2.7,1.4-5.4,1.6-8.2c0.2-1.8,0-3.6,0.1-5.5c0-0.9-0.4-1.7-0.2-2.5
		c0.4-0.3,1,0,1.1-0.5c-0.2-0.2-0.4,0.1-0.6-0.2c0-0.3,0.3-0.6,0-1c-1.2-0.8-1.6-1.4-0.2-2.3c0.1-0.5,0.1-0.9,0-1.4
		c-0.2-0.2-0.4-0.3-0.6-0.3c-0.2,0.1-0.5,0.3-0.5,0.6c0.2,0.4,0.6-0.3,0.8,0.2c-0.2,0.2-0.7,0.2-0.8,0.7c-0.1-0.2-0.2-0.3-0.2-0.4
		c-1-4-2.6-7.7-4.7-11.2c-0.2-0.3-0.3-0.6-0.3-1c-0.6-0.2-0.9-0.7-1.2-1.2c0-0.1,0.1-0.3,0.1-0.4c0.1-0.2,0.5-0.1,0.6-0.4
		c-1.2-0.2-2.1-0.8-2.8-1.8c-1.2-1.5-2.6-2.8-4.1-4.1c-0.3-0.3-0.6-0.6-0.6-1.1c-0.8,0-1.2-0.2-1.3-0.9c0.1-0.3,0.5-0.3,0.6-0.7
		c0.1-0.4-0.4-0.4-0.5-0.6c0.3-0.3,0.7-0.4,0.5-0.8c-0.2-0.5-0.6-0.7-1.3-0.5c0.4,0.7-0.8,0.9-0.6,1.6c0.3,0.4,0.7,0.4,1,0.6
		c-0.2,0.1-0.4,0.1-0.6,0.2c-0.8-0.5-1.6-1.1-2.3-1.5c-0.2-0.5,0-1-0.3-1.4c-0.4-0.1-0.7-0.1-0.8,0.3c0.1,0.2,0.5,0.2,0.4,0.5
		c-2.6-1.2-5.1-2.3-7.8-3.6c-0.4,0.1-1-0.1-1.6-0.2c-0.9-0.2-1.8-0.4-2.7-0.6c-0.9-0.2-1.8-0.4-2.7-0.4c-2.3-0.2-4.5-0.4-6.8-0.2
		c-0.5,0.1-1.1,0-1.6,0c0.1-0.6,0.5-0.1,0.7-0.3c0-0.2,0.1-0.5-0.1-0.8c-0.3-0.2-0.6-0.4-1-0.5c-0.2,0.4-0.4,0.9-1,0.7
		c-0.2,0.3,0,0.7-0.6,1.1c-1.6,0.3-3.4,0.6-5.1,1.1c-0.4-0.3-0.6-0.8-1.2-0.6c0,0.4,0.5,0.4,0.5,0.7c-0.4,0.4-1,0-1.2,0.3
		c-0.4,0.5-1,0.5-1.5,0.7c-4.5,1.8-8.2,4.1-11.8,7.4c-1,0.9-2,1.8-2.9,2.9c-1.2,1.4-2.4,2.9-3.4,4.5c-0.3,0.5-0.7,0.9-1.3,1.1
		c-0.1,0-0.1,0.1-0.2,0.2c0.1,0.1,0.2,0.3,0.4,0.5c-1.5,2.6-2.7,5.2-3.6,8.1c-0.2-0.3-0.4-0.3-0.5-0.1c-0.1,0.3-0.2,0.7-0.1,0.9
		c0.3,0.5,0.1,1,0,1.5c-1.1,4.6-1.4,9.3-0.8,14c0.6,4.9,2.1,9.4,4.4,13.7c1.3,2.5,3,4.7,4.7,6.9c0.1,0.1,0.2,0,0.4,0.1
		c0.4-1.1,0.9-2.2,1.3-3.3c0.5-1.2,0.6-2.5,1.1-3.7c0.7-1.8,1.3-3.7,1.9-5.5c-0.3-0.6-0.6-1.2-0.9-1.8c-2.1-4.3-3.2-8.8-3.2-13.6
		c0-2.5,0.4-5,1-7.4c0.8-3.4,2.3-6.5,4.2-9.3c0.3-0.4,0.6-0.8,1.1-0.9c0.2-0.3-0.1-0.6,0.1-0.8c0.3-0.2,0.6-0.1,0.9,0.1
		c-0.2-0.7,0.5-0.6,0.7-1.2c-0.1-0.7,0.3-1.2,0.9-1.7c0.9-0.8,1.8-1.6,2.7-2.4c0.9-0.8,2-1.2,2.9-1.9c0.7-0.5,1.4-0.9,2.1-1.3
		c0.7-0.3,1.4-0.8,2.2-0.9c0.8-0.1,1.4-0.6,2.2-0.9c3.5-1,7.1-1.6,10.8-1.4c1.5,0.1,2.9,0.3,4.4,0.5c0.2,0,0.4,0.1,0.5,0.3
		c0,0.3-0.4,0.2-0.4,0.5c0.1,0.2,0.4,0.2,0.7,0.4c0.3-0.2,0-0.6,0.4-0.9c0.9,0.1,1.8,0.1,2.5,0.9c0.4-0.3,0.7-0.1,1.1,0
		c1.4,0.5,2.8,1.1,4.1,1.8c7.2,3.9,12.1,9.9,14.6,17.8c1.3,4.2,1.7,8.5,1,12.9c-0.4,2.4-0.9,4.7-1.8,6.9c-0.9,2.4-2.1,4.6-3.6,6.5
		c-0.4,0.2-0.7-0.1-0.9,0.1c-0.2,0.4,0.4,0.5,0.2,0.8c-1,1.4-2.2,2.6-3.4,3.8c-1.2,1.2-2.6,2.2-4,3.1c-1.4,0.9-2.8,1.8-4.3,2.3
		c-1.5,0.6-3,1.5-4.7,1.5c-1.5,0.9-3.2,0.8-4.8,1.1c0.1-0.3,0-0.4-0.2-0.4c-0.7,0.6-3.3,0.7-5.2,0.3c0.3,0,0.5-0.1,0.6-0.4
		c-0.1-0.5-0.6-0.2-0.9-0.4c0-0.4,0.4-0.7,0.4-1.1c-0.3-0.2-0.4-0.6-0.5-0.9c-0.3,0-0.5,0.2-0.8,0c-0.2-0.2-0.1-0.5-0.1-0.8
		c0.3,0,0.7-0.1,0.6-0.4c-0.1-0.4,0.7-0.9-0.1-1.3c-0.4,0.4-0.9,0.8-1.5,1.2c0.8,0.6,0.2,1.6,0.8,2.2c0.4,0.1,0.2-0.3,0.4-0.3
		c0.1,0.2,0.3,0.4,0.4,0.6C48.8,76.9,48.9,77.2,49.4,77.5z M91.8,40.7c-0.1-0.2,0.3-0.4,0-0.7c-0.3,0.1-0.5,0.1-0.7,0.4
		c0.2,0.1,0.4,0.3,0.6,0.4c0.2,0.8,0.8,0.6,1.4,0.5c-0.1,0.3-0.1,0.5-0.1,0.7c-0.4,0.2-0.9,0.2-1.3,0.3c-0.1,0.1-0.1,0.2-0.1,0.2
		c0.1,0.2,0.2,0.4,0.2,0.4c0.4,0.1,0.7,0.1,1.1,0.2c0.1-0.2,0.1-0.5,0.2-0.5c0.7-0.1,0.7-0.7,1-1.1c0.4-0.6,0.5-1.2,0-1.9
		c-0.6,0.2-0.8-0.5-1.1-0.7c-0.4,0.2-0.4,0.5-0.4,0.8c-0.1,0.5,0.6,0.4,0.5,1C92.5,40.2,92.2,41.1,91.8,40.7z M71.2,62.5
		c-0.2-0.5,0-0.9,0.3-1.4c1.5-2.2,2.6-4.6,3.3-7.2c0.8-3.5,1-6.9,0.2-10.4c-1.6-7-5.6-12.2-11.9-15.7c-0.3-0.2-0.8-0.3-1-0.6
		c0-0.2,0.2-0.4-0.1-0.6c-0.2,0.3-0.5,0.2-0.8,0.2c-0.6-0.1-1.1-0.3-1.7-0.6c-0.3-0.1-0.7-0.3-1-0.6c-0.3-0.3,0.2-0.6-0.2-0.9
		c-1-0.2-1-0.2-1.5,0.7c-1.2-0.1-2.4-0.5-3.7-0.4c-0.6,0-1.3,0-1.7-0.6C51,25,50.5,25.1,50,25.2c-1,0.1-2,0.2-3,0.4
		c-1.7,0.4-3.2,1.2-4.9,1.5c-0.4,0.5-1,0.7-1.5,1c-3.3,1.9-6,4.4-8,7.5c-0.5,0.7-1,1.3-1.6,1.9c0.2,0.6,0.2,0.6-0.1,1.3
		c-1.8,4.2-2.5,8.5-1.8,13c0.5,3.5,1.8,6.7,3.9,9.6c0.5,0.7,0.6,1.4,0.3,2.2c-0.6,1.7-1.2,3.4-1.7,5.1c-0.1,0.3-0.3,0.6,0,0.9
		c0.8-0.2,1.6-0.5,2.4-0.7c0.8-0.2,1.5-0.4,2.3-0.7c0.7-0.3,1.6-0.3,2.3-0.6c0.1,0.5,0.2,1,0.5,1.5c0.2,0,0.2-0.3,0.4-0.3
		c0.3,0.1,0.1,0.5,0.4,0.5c0.2-0.3,0-0.7,0.3-1.1c1.1,0.9,2.4,1.2,3.5,1.8c0.2,0.3-0.2,0.8,0.3,0.9c0.3-0.1,0-0.6,0.5-0.6
		c0.5,0.3,1.5,0.1,1.9,0.9c-0.3,0.5-0.8,0.4-1,0.8c0,0.3,0.2,0.4,0.4,0.5c0.5-0.5,1.1-0.9,1.7-1.4c0.9,0.1,1.8,0.4,2.7,0.4
		c0.4,0,0.6,0.4,0.9,0.6c0,0.5-0.7,0.6-0.2,1.3c0,0,0.2,0,0.4-0.1c0.3-0.5,0.6-1.1,0.8-1.6c0.8-0.1,1.5-0.2,2.3-0.2
		c0.7,0,1.4-0.1,2.1-0.3c2.6-0.5,5.1-1.4,7.4-2.8c0.4-0.2,0.8-0.5,1.3-0.5c0.8-0.8,1.8-1.6,2.7-2.3c0.9-0.8,1.7-1.7,2.5-2.6
		C70.6,62.7,71,63,71.2,62.5z M31.2,72.6c-0.5,0.2-0.5,0.7-0.9,0.9c0.2,0.7,1.2,1,0.8,1.9c-0.3,0.1-0.5-0.4-0.8,0.2
		c0.5,0.1,0.8,0.6,1.5,0.9c-0.2-0.7,0.1-1,0.6-1.1c-0.2-0.8-0.8-1.3-1.2-1.9c0.2-0.2,0.4,0.1,0.7,0c0.1-0.2,0.3-0.4,0.2-0.6
		C31.8,72.8,31.5,72.7,31.2,72.6z M30.6,89.6c-0.4,0.6-0.4,1.2-0.4,1.9c0,0.2,0.1,0.6,0.5,0.6c0.2-0.2,0.3-0.5,0.5-0.7
		c0.2-0.2,0.6-0.6,0.4-0.9c-0.4-0.6-0.3-1.6-1.1-2C30.2,88.9,30.7,89.3,30.6,89.6z M72.8,33c-0.3,0.3-0.7,0.5-0.4,1
		c0.3,0.1,0.7,0.1,1.1-0.1c0.2-0.6-0.1-1.2,0.2-1.7c-0.2-0.2-0.3-0.4-0.5-0.3c-0.2,0.1,0.3,0.9-0.5,0.6c-0.2-0.3,0-0.7-0.3-1
		c-0.3,0.1-0.6,0.3-0.9,0.6c0,0.4-0.1,0.8,0.2,1.3c0.1-0.4,0.2-0.5,0.2-0.7C72.1,33,72.5,32.8,72.8,33z M40.8,71.9
		c-0.6,0.1-1.1-0.2-1.7,0c0,0.3-0.2,0.6-0.2,0.7c0.4,0.8,1.1,0.7,1.7,0.9C40.7,73,40.8,72.5,40.8,71.9z M81,48.9
		c0.4,0.1,0.6,0.1,0.8,0c0.4-0.2,0.5-0.7,0.9-0.9c-0.2-0.4-0.6-0.5-0.6-0.9c0-0.3,0.5-0.4,0.2-0.8c-0.2,0.1-0.5,0.1-0.8,0.2
		c0.1,0.5-0.5,0.8-0.4,1.3C81.2,47.9,81,48.8,81,48.9z M89.1,35.8c-0.2,0-0.4-0.2-0.7-0.1c-0.2,0.2-0.2,0.4,0,0.7
		c0.2-0.1,0.4-0.2,0.7-0.1c0.2,0.2,0.3,0.5,0.6,0.6c0.2-0.3,0.8,0,0.8-0.5C90.4,36,90,36.2,89.7,36c0.2-0.3,0.5-0.6,0.7-1
		c-0.3-0.1-0.6-0.5-1.1-0.3C89.1,35.1,89.4,35.5,89.1,35.8z M16.7,78.2c-0.1,0.4-0.5,0.5-0.6,1c0.7,0.4-0.6,1.4,0.5,1.9
		c0.4-0.2,0.9-0.2,1-0.9c-0.3,0-0.5,0.1-0.8,0.1c0.2-0.4-0.3-0.6-0.1-1.1c0.1-0.1,0.5,0.1,0.6-0.2c0.1-0.2,0.1-0.4,0-0.7
		C17.1,78.1,16.9,78.6,16.7,78.2z M27.2,70.7c-0.3,0.4-0.8,0.4-1.4,0.6c0.6,0.3,0.9,1,1.2,1c0.9,0,0,1,0.7,1
		c0.5-0.2,0.4-0.7,0.5-1.1c-0.3-0.3-0.6-0.3-0.8-0.4C27.2,71.4,27.9,71.1,27.2,70.7z M92.2,36.1c0.4,0.4,1,0.3,1.3,0.8
		c0.5-0.4,0.8-0.8,0.8-1.3c-0.4-0.4-0.8,0.1-1.1,0c-0.1-0.3-0.3-0.6-0.7-0.4C92.6,35.6,92.3,35.8,92.2,36.1z M31.3,12.9
		c0.5-0.3,0.5-0.3,0.8-1.7c-0.9-0.5-0.9-0.5-1.5,0.4c0.3,0.3,0.6-0.3,0.9,0c-0.1,0.4-0.7,0.3-0.7,0.7C30.9,12.6,31.1,12.7,31.3,12.9
		z M18.3,82.7c-0.2-0.6-0.7-1-0.9-1.6c-0.9,0.5-0.1,1.1-0.3,1.7c-0.1,0.4,0.3,0.5,0.5,0.7C17.9,83.3,18.1,83.1,18.3,82.7z M65,92.8
		c0.2-0.9,0.2-1.5,0-2.1c-0.4,0-0.8-0.1-1.2,0.1c0.1,0.3,0.1,0.5,0.2,0.8C64.3,91.8,64.8,91.9,65,92.8z M18,73.3
		c-0.7,0.2-0.9-0.7-1.6-0.4c0,1.1,0,1.1,1.7,1.4C18.2,74,18,73.8,18,73.3z M80.6,17.1c-0.5,0.3-0.1,0.6-0.2,0.8
		c-0.2,0.3-0.6,0.3-0.6,0.7c0.2,0.3,0.5,0.6,0.8,0.7C81.4,18.6,80.7,17.9,80.6,17.1z M59.8,92.7c-0.3-0.4-0.7-0.5-1-0.2
		c-0.3,0.3-0.9,0.5-0.6,1.1c0.4-0.1,0.8-0.6,1.2,0C59.6,93.2,59.7,92.9,59.8,92.7z M77.8,18.2c-0.2,0.4,0.2,0.7,0.2,1.2
		c0.3-0.3,0.8-0.2,1-0.7c-0.1-0.3-0.2-0.7-0.1-1.1C78.4,17.8,78.1,17.9,77.8,18.2z M35.3,28c0.7-0.1,1.2-0.4,1.5-1
		c-0.3-0.4-0.4-0.7-0.9-0.7c-0.4,0.4,0,0.7-0.1,1C35.7,27.5,35.2,27.4,35.3,28z M33.2,89.2c0.3-0.4,0.3-0.7,0.1-1.1
		c-0.3,0.1-0.6-0.2-0.9-0.2c-0.1,0.4-0.2,0.8-0.3,1.2C32.5,88.7,32.8,89.1,33.2,89.2z M89.3,65.1c0.1,0.6-0.3,1.3,0.4,1.7
		c0.4-0.2,0.1-0.5,0.2-0.7c0.1-0.4,0.5-0.3,0.7-0.5C90.1,65.3,89.9,64.9,89.3,65.1z M57.2,93.6c-0.3,0-0.6-0.1-0.8,0.2
		c0.1,0.6,0.9,0.8,0.8,1.4c0.3-0.1,0.5-0.3,0.6-0.6C57.6,94.3,57.4,94,57.2,93.6z M82.3,80.6c-0.6,0-1-0.4-1.4-0.7
		c-0.4,0.4-0.5,0.7-0.6,1.1c0.4,0.1,0.6-0.1,1,0C81.6,81,82.1,81.2,82.3,80.6z M26.6,88.9c0.1-0.6,0-1.4-0.3-1.7
		c-0.1-0.2-0.3-0.3-0.6-0.1c0.1,0.5,0.3,1,0.3,1.5C26.2,88.8,26.4,88.9,26.6,88.9z M35.3,29.8c0.4-0.3,0.8-0.6,1.2-0.9
		c-0.1-0.2-0.2-0.4-0.3-0.6C35.4,28.4,35.1,28.9,35.3,29.8z M35.8,70.7c0.5-0.1,0.4-0.5,0.5-0.7c0.3,0.1,0.4,0.2,0.7-0.1
		c-0.1-0.3-0.1-0.6-0.5-0.8c-0.2,0.2-0.5,0.5-0.7,0.7C35.7,70,35.7,70.3,35.8,70.7z M88.4,37.7c-0.1,0.4-0.2,0.8,0.1,1.1
		c0.3,0.1,0.5-0.2,0.9-0.3c-0.3-0.3,0.2-0.5-0.1-0.9C88.9,37.5,88.7,37.8,88.4,37.7z M11.6,70c-0.3,0.8-0.2,1.9,0.1,2.5
		c-0.1-0.6,0.2-1,0.5-1.5C11.9,70.8,11.9,70.4,11.6,70z M76.1,58.4c0.3-0.9-0.7-1.3-0.7-2.1C74.8,56.9,75.1,57.5,76.1,58.4z
		 M23.2,85.3c-0.2-0.5,0.1-1.1-0.2-1.7C22.1,84.2,22.1,84.2,23.2,85.3z M33.2,89.8c-0.7,0.8-0.4,1.5-0.1,2.2
		C33,91.3,33.8,90.7,33.2,89.8z M47.5,94.7c-0.4-0.3-0.2-0.9-0.9-1.2c0.6,0.8-0.4,0.9-0.5,1.4C46.7,95.2,47.1,94.9,47.5,94.7z
		 M27.3,84.4c-0.5-0.2-0.5-0.8-0.8-1.2c-0.5,0.5-0.5,1,0,1.4C26.7,84.5,27,84.5,27.3,84.4z M30.3,62.3c0.3-0.5,0-0.8-0.2-1.2
		c-0.1-0.1-0.4-0.1-0.5,0c0,0.3-0.1,0.5-0.1,0.8C29.8,62.1,30,62.4,30.3,62.3z M20,84.5c-0.2,0.3,0,0.5,0.1,0.7c0,0.2,0,0.5,0.2,0.7
		c0.1,0,0.3,0,0.5,0c0-0.2,0-0.5,0.1-0.7C20.6,84.9,20.4,84.6,20,84.5z M35.9,73.4c0.8-0.7,0.9-1.6,0.3-2.6
		C36.2,71.7,36.3,72.5,35.9,73.4z M93.9,37.2c-0.4-0.2-0.7-0.2-0.8,0.1c-0.1,0.4-0.6,0.7-0.2,1.3C93.4,38.3,93.4,37.7,93.9,37.2z
		 M21.7,80.5c0.5-0.1,0.5-0.1,0.8-0.7c-0.2-0.3-0.5-0.4-0.8-0.2C21.5,80,21.5,80.3,21.7,80.5z M31.6,8.4c-0.3,1.3-0.3,1.3,0,1.8
		C32.4,9.6,31.6,9,31.6,8.4z M66.6,74.5c0.4-0.2,0.7-0.5,0.9-0.8c-0.2-0.3-0.3-0.5-0.6-0.3C66.4,73.7,66.4,74.1,66.6,74.5z
		 M19.7,77.6C19.5,77.3,19.4,77,19,77c-0.2,0.1-0.3,0.2-0.5,0.3c0.1,0.3,0.1,0.5,0.3,0.6C19.2,78.1,19.5,77.9,19.7,77.6z M79.7,46.6
		c-0.3-0.5-0.7-0.4-1.1-0.3c0,0.3,0.1,0.6,0.2,0.9C79.1,47,79.5,47,79.7,46.6z M17.7,28.5c0.3-0.2,0.5-0.4,0.3-0.7
		c-0.2-0.3-0.5-0.4-0.9-0.2C16.9,28.2,17.3,28.3,17.7,28.5z M55.4,94c0.5,0.5-0.4,1.1,0.4,1.5c0.3-0.5,0.1-1,0.3-1.5
		C55.9,94,55.8,94,55.4,94z M21.6,21c-0.1-0.5-0.3-0.9-0.9-1.2c0,0.6,0.4,1,0.4,1.5C21.3,21.3,21.5,21.2,21.6,21z M77.1,56.6
		c-0.1,0.5-0.4,0.7-0.3,1.1c0.2,0.2,0.4,0.3,0.6,0.3C77.7,57.4,77.5,57,77.1,56.6z M6.8,35.5c-0.3,0.4-0.2,0.7-0.3,1.2
		c0.4-0.1,0.7-0.1,0.9-0.3C7.3,36,7.3,35.6,6.8,35.5z M54.8,90.5c0.6-0.1,0.8-0.4,1-0.9C55,89.4,55,89.4,54.8,90.5z M78.8,22.2
		c-0.1-0.6-0.2-1.1-0.3-1.6c-0.3,0-0.4,0.1-0.5,0.4C78.3,21.4,78,22,78.8,22.2z M22.4,81.5c-1-0.3-1-0.3-1.3,0.6
		C21.6,81.7,22,82,22.4,81.5z M38.1,87.5c-0.3,0.2-0.6,0.1-0.6,0.6c0.4-0.1,0.6,0.7,1.3,0.1C38.5,88.1,38.2,87.9,38.1,87.5z
		 M77.8,36.1c-0.1-0.4-0.1-0.8-0.2-1.4c-0.4,0.5-0.7,0.8-0.5,1.3C77.3,36.1,77.5,36.1,77.8,36.1z M7.2,42.4c-0.3,0-0.7-0.2-0.9,0.2
		c0,0.3,0.2,0.5,0.5,0.6C7,43,7.3,42.9,7.2,42.4z M92.2,63.2c0.4,0.2,0.7,0.1,0.9-0.2c-0.3-0.2-0.2-0.6-0.5-1
		C92.3,62.4,92.4,62.9,92.2,63.2z M90.8,68c-0.1-0.4-0.2-0.7-0.6-0.7c-0.1,0.3-0.5,0.5-0.3,0.9C90.1,68.2,90.4,68.1,90.8,68z
		 M14.9,74.5c0.2,0.6,0.5,1,0.4,1.5C15.9,75.3,15.8,75,14.9,74.5z M44.4,6.9c0.5,0.4,0.9,0.4,1,0c-0.1-0.3-0.4-0.4-0.6-0.4
		C44.5,6.6,44.5,6.7,44.4,6.9z M35.1,8c0.2-0.1,0.6,0.2,0.7-0.3c-0.2-0.2-0.5-0.4-0.7-0.6c0,0-0.1,0-0.2,0.1C34.7,7.6,35,7.8,35.1,8
		z M57.8,10.9c0.4,0.1,0.5,0.2,0.7,0c0.1-0.7,0.1-0.7-0.4-1.2C57.8,10,58.5,10.5,57.8,10.9z M85.2,23.6c0.1-0.7-0.4-0.8-0.9-0.9
		C84.4,23.3,84.6,23.6,85.2,23.6z M84.9,75c0.3-0.3,0.5-0.6,0.4-1C84.4,74.1,84.7,74.6,84.9,75z M16.1,77c0.3,0.3,0.1,0.6,0.4,0.9
		c0.3-0.2,0.6-0.4,0.6-0.8C16.8,76.9,16.5,76.9,16.1,77z M29.2,59.5c-0.4,0.4-0.6,0.7-0.5,1c0.2,0.2,0.5,0.2,0.7,0
		C29.4,60.3,29.2,60,29.2,59.5z M92,60.1c0.5,0.2,0.9,0.2,1.1-0.3c-0.1-0.2-0.1-0.4-0.4-0.6C92.6,59.6,92.2,59.8,92,60.1z
		 M67.7,87.5c0,0.3,0.2,0.5,0.4,0.7c0.3-0.4,0.5-0.8,0.1-1.3C67.9,87.1,67.7,87.2,67.7,87.5z M50.6,89.8c0.4,0.8,0.4,0.8,1,0.3
		C51.4,89.9,51.2,89.6,50.6,89.8z M75.8,14.1c0.4,0,0.6-0.2,0.5-0.6c-0.3-0.2-0.5-0.2-0.7,0C75.6,13.7,75.5,13.9,75.8,14.1z
		 M46.4,25.1C46,25,46,24.7,45.8,24.5c-0.1-0.1,0.1,0-0.1,0c-0.1,0.2-0.3,0.4-0.2,0.6C45.7,25.5,46,25.5,46.4,25.1z M44.1,94.5
		c-0.5,0.4-0.5,0.7,0,0.9C44.5,95.2,44.6,94.9,44.1,94.5z M29.3,35c-0.4,0.1-0.7,0.2-0.9,0.3c0.1,0.3,0.1,0.5,0.3,0.6
		C29,35.7,29.3,35.6,29.3,35z M64.6,89.3c-0.1,0.3-0.4,0.4-0.3,0.8c0.2,0.2,0.4,0.2,0.6,0.1C64.9,89.8,65.2,89.4,64.6,89.3z
		 M94.6,49.7c0.1,0.2,0.1,0.4,0.4,0.5c0.4-0.8,0.5-0.9,0.2-1.1C94.9,49.3,94.7,49.5,94.6,49.7z M54.2,75.7c0.2-0.5,0.2-0.9,0-1.3
		C54,74.9,53.4,75.3,54.2,75.7z M60.4,72c0.1-0.4,0.6-0.6,0.2-1C60,71.3,60,71.3,60.4,72z M49.1,8.1c-0.4,0-0.5,0.1-0.6,0.4
		c0.1,0.2,0.3,0.4,0.6,0.3C49.3,8.6,49.3,8.4,49.1,8.1z M66.5,9.6c-0.3-0.2-0.6-0.3-1-0.2c0,0.3-0.1,0.5,0.1,0.7
		C65.9,10,66.2,9.8,66.5,9.6z M47.7,96.3c-0.4-0.2-0.7-0.1-0.9,0.3C47.3,97.1,47.5,96.7,47.7,96.3z M25.7,13.3
		c-0.1-0.8-0.1-0.8-0.7-0.4C25.1,13.2,25.4,13.2,25.7,13.3z M23.5,21.3c-0.1-0.2-0.1-0.4-0.2-0.5c-0.1-0.2-0.2-0.2-0.4-0.2
		C22.7,21,22.7,21.4,23.5,21.3z M47.6,20.9c0.6,0.5,0.6,0.5,0.9-0.4C48.2,20.8,47.8,20.7,47.6,20.9z M17.1,24.6
		c0.6,0.2,1,0.7,1.3-0.1C18.1,24.3,17.8,24.3,17.1,24.6z M90.5,32c0-0.1,0-0.2,0-0.3c-0.4,0.1-0.9,0.1-1.5,0.2
		C89.6,32.2,90.1,32.3,90.5,32z M76.5,61.7c0.5-0.4,0.9-0.5,0.6-1.1C76.7,60.8,76.6,61.1,76.5,61.7z M42.1,93.4
		c0.1-0.5,0.7-0.5,0.6-1c-0.3,0.1-0.6,0.2-0.9,0.2C41.9,92.8,42,93,42.1,93.4z M34.7,92.4c0.1-0.4,0.4-0.7,0.1-1.1
		C34.4,91.6,34.1,91.8,34.7,92.4z M22.9,83.1c0.3-0.2,0.3-0.5,0.4-0.8c0.1-0.2-0.1-0.3-0.4-0.3C22.8,82.4,22.7,82.8,22.9,83.1z
		 M55.9,93.5c0-0.2-0.1-0.4-0.3-0.6c-0.3,0.1-0.5,0.3-0.6,0.7C55.4,93.6,55.6,93.7,55.9,93.5z M23.3,75.1c-0.9,0-0.9,0-0.7,0.7
		C22.9,75.7,23,75.3,23.3,75.1z M12.1,74.9c-0.5,1-0.5,1.1,0.3,1.1C12.2,75.7,12.1,75.4,12.1,74.9z M86,69.8
		c-0.8,0.1-0.9,0.1-0.9,0.7c0,0.1,0.2,0.1,0.3,0.2C85.5,70.4,85.6,70.1,86,69.8z M41,95.4c0-0.2-0.1-0.5-0.3-0.6
		c-0.2,0.1-0.4,0.3-0.3,0.6C40.6,95.5,40.8,95.5,41,95.4z M50.6,93.3c-0.4-0.2-0.7-0.1-0.8,0.3c0.1,0.2,0.2,0.3,0.3,0.3
		C50.2,93.7,50.5,93.6,50.6,93.3z M49.9,7.6C50,7.3,50.1,7,49.8,6.9c-0.3,0-0.4,0.1-0.5,0.4C49.4,7.4,49.6,7.5,49.9,7.6z M25.2,18.6
		c0.1,0.4,0.1,0.8,0.6,0.8C26,18.9,25.8,18.7,25.2,18.6z M48.5,19.9c-0.5,0-0.8-0.1-1.1,0.2C47.9,20.5,48.2,20.5,48.5,19.9z
		 M83.8,20.8c0.1,0.4,0.3,0.6,0.6,0.6C84.6,20.9,84.5,20.7,83.8,20.8z M43.7,23.7c0,0.4,0.2,0.7,0.3,0.9c0.2,0,0.3-0.2,0.4-0.3
		C44.3,24.1,44.1,23.8,43.7,23.7z M42.1,25.5c0.2,0.4,0.5,0.5,0.9,0.3C42.7,25.3,42.5,25.2,42.1,25.5z M26.4,34.6
		c-0.1-0.4-0.3-0.4-0.5-0.4c-0.2,0-0.4-0.1-0.5,0.2C25.7,34.9,26.1,34.6,26.4,34.6z M88.7,39.1c-0.4,0.3-0.4,0.3,0,0.7
		C88.9,39.5,88.9,39.3,88.7,39.1z M76.5,40.8c0.5-0.6,0.5-0.6,0-1C76.5,40.1,76.5,40.4,76.5,40.8z M8.5,54.2C8.8,54.2,9,54,9.1,53.8
		C9,53.7,9,53.6,8.7,53.5C8.6,53.6,8.3,53.7,8.5,54.2z M69.7,86.3c-0.1,0.3-0.7,0.1-0.6,0.6c0.2,0.1,0.5,0.1,0.7,0
		C69.9,86.8,69.9,86.6,69.7,86.3z M48.6,72.1c-0.2,0.3-0.4,0.5-0.6,0.7c0.2,0.2,0.4,0.3,0.6,0.3C48.8,72.8,48.8,72.6,48.6,72.1z
		 M24.5,71.8c-0.1,0.7-0.2,1.1,0.1,1.6C24.8,72.9,24.9,72.5,24.5,71.8z M43.1,76c0.2-0.4,0.2-0.6,0-0.9C42.6,75.4,42.6,75.7,43.1,76
		z M39.3,71.3c0.1-0.5-0.1-0.7-0.7-0.8C38.8,70.8,38.8,71.1,39.3,71.3z M25,69.2c0.1-0.4-0.1-0.5-0.3-0.6c-0.1,0.1-0.3,0.1-0.3,0.3
		C24.4,69.2,24.5,69.4,25,69.2z M91,68.5c0.3,0.1,0.5,0.4,0.7,0.2c0.1-0.3-0.2-0.5-0.4-0.8C91.2,68.1,91.1,68.3,91,68.5z M12.9,74.4
		c0.2-0.4,0.2-0.8,0-1.3C12.6,73.6,12.7,74,12.9,74.4z"/>
	<path class="st1" d="M96,38.4c-0.6-0.2-0.3-0.6-0.5-1C95.9,37.7,95.8,38,96,38.4z"/>
	<path class="st0" d="M56.2,53.9c0.6-1.1,1.6-2,2.2-3c0.3-0.1,0.3,0.2,0.5,0.2c0.5,0,0.4-0.5,0.5-0.7c0.4-0.3,1-0.2,1.9,0.2
		c0.1,0.3-0.2,0.4-0.3,0.6c0.8,0.6,1,0.6,1.8,0.1c0.5,0.2,1.1,0.3,1.4,0.9c0.1,0.2,0.4,0.4,0.6,0.3c0.9-0.2,1.3,0.6,2.1,0.7
		c-0.1,0.4-0.4,0-0.5,0.3c-0.1,0.5,0.5,0.4,0.7,0.9c0,0.7,0,1.4,0.4,2c0.3,0.1,0.4-0.1,0.7-0.2l0,0c0,0.4,0,0.9-0.1,1.3
		c-0.6-0.1-1.1,0-1,0.4c0,0,0.1,0.1,0.2,0.2c0.2-0.2,0.4-0.3,0.6-0.4c-0.4,0.9-0.6,1.9-1.4,2.7c-2.4,2.2-5.2,3-8.4,2.3
		c-0.8-0.2-1.5-0.4-2.2-0.6c-0.4-0.3,0.1-0.7-0.1-0.8c-0.3-0.3-0.4-0.3-0.6-0.3c-0.3,0.1,0,0.5-0.5,0.7c-0.8-0.4-1.8-0.7-2.8-1
		c0-0.3,0.4-0.4,0.2-0.7c-0.4-0.2-0.7,0.2-1.1,0.3c-0.6-0.4-1.5-0.5-2-1.4c0-0.1-0.2-0.1-0.3-0.2C47.1,58.2,46.1,57,45,56
		c0,0,0-0.1,0-0.1c0.2-0.3,0.5-0.1,0.8-0.1c0.3,0.2,0.1,0.8,0.7,0.9c0.3-0.6,0.1-0.9-0.5-1.1c-0.5-0.4-1-0.6-1.5-0.2
		c-0.5-0.3-0.8-0.7-1.1-1.1c0.7,0,0.9-0.4,1.2-0.9c-0.5-0.2-0.9-0.7-1.4-0.1c0,0.3,0.1,0.6,0.1,0.9c-1.8-1.9-3.3-4.1-4.7-6.3
		c-0.8-1.3-1.2-2.7-1.6-4.1c-0.3-1,0.1-2-0.1-3c-0.1-1,0.3-2,0.7-2.9c0.2-0.4,0.4-0.8,0.7-1.1c0.6-0.7,1.1-1.5,1.8-2.1
		c1.1-0.9,2.4-0.9,3.7-0.7c0.3,0.3,0,0.9,0.6,1c0.4-0.2,0-0.7,0.3-1c0.1,0,0.2,0,0.3,0.1c0.6,0.2,1,0.7,1.3,1.2
		c0.3,0.7,0.8,1.4,0.8,2.2c0,0.5,0.5,0.6,0.6,1c0.4,1,0.8,2,1.2,3c0.2,0.4,0.1,0.9,0.1,1.3c-0.4,0.1-0.7-0.1-1-0.3
		c-0.2,0.3-0.4,0.4-0.8,0.3c-0.3,0.6-0.1,1.5,0.6,2.1c-0.2,0.5-0.8,0.7-1,1.3c0.6,1.2,1.5,2.2,2.4,3.3c0.6,0.7,1.4,1.1,1.8,1.9
		c0.1,0.3,0.7,0.1,0.8,0.5c-0.5,0.1-0.4,0.7-0.9,1c0.1,0.3,0.2,0.7,0.3,1c0.8-0.2,0.8-1,1.2-1.4c0.3-0.1,0.5,0.1,0.7,0.2
		c-0.2,0-0.5,0-0.6,0.2c0.4,0.4,0.4,0.4,1,0.2c0.6,0,1,0.4,1.5,0.6C55.3,53.8,55.7,54,56.2,53.9c-0.2,0.3-0.6,0.5-0.7,1
		c0.4-0.2,0.5,0.3,0.9,0.4c0.4-0.8,0.4-0.8,0.1-1.5C56.4,53.8,56.3,53.9,56.2,53.9z M48.3,51.9c0-0.3,0-0.6-0.1-0.9
		c0-0.1-0.1-0.1-0.2,0c0.1,0.3-0.4,0.4-0.4,0.7c0.1,0.4,0.4,0.4,0.6,0.4c-0.2,0.3-0.4,0.5-0.3,1c0.4-0.3,1-0.4,1-1
		C48.7,51.9,48.5,52,48.3,51.9z M43.1,40.7c-0.2-0.4,0.3-0.7,0.1-1.1c-0.5,0.4-0.6,0.8-0.2,1.3c0.1,0.3-0.3,0.5,0,0.8
		c-0.2,0.2-0.6,0.2-0.7,0.6c0.2,0.4,0.3,0.9,0.9,1c0.2,0.3,0.4,0.5,0.7,0.6c0.3-0.5,0.7-1,1-1.5c-0.2-0.2-0.3-0.3-0.4-0.5
		c0.3-0.1,0.6-0.2,1-0.3c-0.6-0.6-0.9-0.3-1.2,0.1c-0.5,0-0.4,0.5-0.6,0.7c-0.2-0.3-0.6-0.3-0.7-0.6c0.3,0,0.6-0.2,0.9-0.5
		C43.5,41.2,43.6,40.6,43.1,40.7z M60.8,59.3c0.7,1,1.3,2,0,2.9c-0.3-0.1-0.7-0.6-1.2,0c0.3,0.3,0.7,0.5,0.9,0.7
		c0.3,0,0.4-0.3,0.6-0.3c0.8-0.2,0.9-0.7,0.9-1.4c0-0.5-0.3-1,0.2-1.5C61.8,59.9,61.6,59.1,60.8,59.3z M51.1,56.4
		c0.2,0.2,0.5-0.2,0.7,0.1c0.4,0.3,0,1,0.7,1.1c0.3-0.3-0.3-0.7,0-1c0.2-0.2,0.6,0,0.7-0.3c-0.7-0.2,0-1.1-0.8-1.2
		c-0.3,0,0,0.4-0.3,0.4C52,54.5,51.7,54.4,51,55c0.1,0.4,0.4,0,0.5,0.1C51.8,55.7,51.1,56,51.1,56.4z M53.8,57
		c-0.3,0.7,0.1,1.1,0.3,1.6c0.8,0,1.5-0.3,1.9-1.2c-0.2-0.3-0.3-0.5-0.7-0.7c-0.2,0.2-0.3,0.6-0.7,0.6c-0.1,0-0.2-0.1-0.3-0.1
		C54.2,57.3,54,57.2,53.8,57z M50,54.6c-0.4-0.3-0.6-0.5-0.8-1c-0.3,0.3-0.4,0.9-0.9,1c0.8,0.1,0.5,1.6,1.7,1.2
		C50,55.4,50,55,50,54.6z M65.9,59.6c0.1-1-0.9-1.4-0.9-2.5c-0.3,0.4-0.4,0.6-0.5,0.9C65.1,58.4,65,59.2,65.9,59.6z M61.9,56.4
		c0.2,0.2,0.4,0.2,0.7,0.1c-0.2-0.5,0.1-1,0.3-1.5c0-0.1,0-0.2-0.1-0.3c-0.2,0.1-0.4,0.1-0.7,0.4C62.2,55.5,62,56,61.9,56.4z
		 M60.3,52.8c0.1,0.4,0.7,0.6,0.4,1.1c0.7-0.2,0.5-0.9,1.1-1.2C61.2,52.7,60.8,52.6,60.3,52.8z M58.2,62.6c0.2-0.3,0.2-0.6,0-0.9
		c-0.5-0.2-0.9-0.2-1,0.4c0,0.1-0.1,0.1,0,0.2c0.2,0.2,0.4-0.2,0.6,0C57.9,62.5,57.9,62.6,58.2,62.6z M45,45.2
		c0.3-1.2,0.3-1.2-0.6-1.2C44.5,44.4,44.5,44.8,45,45.2z M59.7,54.4c-0.2,0.3-0.4,0.6-0.7,1c0.6-0.1,1-0.2,1.3-0.4
		C60.2,54.6,60.1,54.4,59.7,54.4z M58.1,60.6C58,60.3,58,60,57.6,59.9c-0.3,0.2-0.4,0.4-0.3,0.7C57.6,61.1,57.8,60.9,58.1,60.6z
		 M43,50.4c0.4,0.3,0.8,0.4,1.1-0.2C43.7,50,43.3,50,43,50.4z M61,57.7c0.5,0.3,0.5,0.3,1.2,0.1C61.7,57.6,61.5,57,61,57.7z
		 M56.1,56.8c0.2-0.4,0.2-0.7,0-1.1C55.7,56.1,55.4,56.4,56.1,56.8z M54.4,60c-0.5,0.6-0.5,0.6,0.4,0.9C54.5,60.6,54.7,60.2,54.4,60
		z M47.2,40.8c0.2-0.8,0.2-0.8-0.1-1.3C47,39.8,47,40.2,47.2,40.8z M47.2,51.7c-0.1-0.3-0.3-0.5-0.6-0.6c-0.2,0.1-0.3,0.2-0.3,0.4
		C46.6,51.6,46.8,51.9,47.2,51.7z M58.6,55.1c-0.1-0.6-0.3-0.8-0.8-0.6C57.9,55,58.2,55,58.6,55.1z M63.3,62.3
		c0.1-0.2,0.3-0.4,0.3-0.7c-0.2-0.1-0.4-0.1-0.6,0.1C62.8,62,63,62.2,63.3,62.3z"/>
	<path class="st1" d="M68.2,56.4c0.3-0.6-0.4-1.1-0.1-1.7C68.4,55.2,68.4,55.8,68.2,56.4L68.2,56.4z"/>
	<path class="st1" d="M43.3,43.1c0-0.2-0.3-0.3-0.2-0.5c0.2-0.1,0.3-0.1,0.5-0.1C43.7,42.8,43.5,42.9,43.3,43.1z"/>
</g>
</svg>
